<svg width="116" height="174" viewBox="0 0 116 174" fill="none" xmlns="http://www.w3.org/2000/svg">
<path d="M49.0157 61.4914C47.8789 61.7921 46.7754 61.9257 45.5717 61.9257C42.9969 61.9257 42.9969 65.9015 45.5717 65.9349C47.0764 65.9349 48.6146 65.7679 50.0859 65.3669C52.5937 64.6987 51.5236 60.8232 49.0157 61.4914Z" fill="#C79B6C"/>
<path d="M51.3231 65.3337C53.8978 65.3337 53.8978 61.3245 51.3231 61.3245C48.7484 61.3245 48.7484 65.3337 51.3231 65.3337Z" fill="#C79B6C"/>
<path d="M44.5018 65.4339C47.0766 65.4339 47.0766 61.4246 44.5018 61.4246C41.9271 61.4246 41.9271 65.4339 44.5018 65.4339Z" fill="#C79B6C"/>
<path d="M44.602 65.1331C47.1767 65.1331 47.1767 61.1238 44.602 61.1238C42.0272 61.1238 42.0272 65.1331 44.602 65.1331Z" fill="#C79B6C"/>
<path d="M51.1224 58.3842C53.6971 58.3842 53.6971 54.375 51.1224 54.375C48.5477 54.375 48.5477 58.3842 51.1224 58.3842Z" fill="#C79B6C"/>
<path d="M46.5415 58.9858C47.7452 59.1194 48.949 59.1194 50.1527 58.9858C51.2228 58.8522 52.159 58.1505 52.159 56.9812C52.159 56.0123 51.2228 54.8429 50.1527 54.9766C48.949 55.1436 47.7452 55.1436 46.5415 54.9766C45.4714 54.8429 44.5352 55.9789 44.5352 56.9812C44.5352 58.184 45.4714 58.8522 46.5415 58.9858Z" fill="#C79B6C"/>
<path d="M44.7357 59.019C47.3104 59.019 47.3104 55.0098 44.7357 55.0098C42.161 55.0098 42.161 59.019 44.7357 59.019Z" fill="#C79B6C"/>
<path d="M66.1025 111.339L65.8015 108.265L61.8559 108.8L62.2237 110.704C62.6584 112.943 66.2362 112.408 66.1694 110.17V108.9C66.0691 107.463 64.4306 106.294 63.0931 107.163C61.3209 108.365 59.5821 109.401 57.7096 110.404L60.6521 112.675L61.5884 110.003C62.6918 107.697 59.4484 105.726 58.1108 107.965L55.9374 111.139C54.3324 113.143 56.7733 115.649 58.7796 113.978C60.6521 112.375 62.1903 110.838 63.3606 108.7C64.1297 107.33 62.8256 105.058 61.0868 105.759L50.788 109.969L52.7274 113.31L55.3021 110.671C56.7065 109.234 55.3021 106.795 53.3627 107.33C50.0858 108.198 47.0095 109.401 43.8663 110.671L45.8057 114.012L48.2467 111.272C49.5842 109.769 48.2801 107.497 46.3073 107.931C45.1704 108.198 42.2279 109.301 41.0241 109.067L42.4954 111.005C42.6626 110.069 42.8966 109.167 43.1976 108.232C43.766 106.194 41.2916 105.024 39.8538 106.294C38.8507 107.163 37.8141 108.031 36.7775 108.867L39.5194 109.602C39.72 110.036 39.5863 106.795 39.5194 106.461C39.2854 105.693 38.4494 104.924 37.58 104.991C35.3397 105.192 34.5372 106.929 33.534 108.8L37.2122 110.337L37.6803 108.065C38.0816 106.194 35.7744 104.557 34.3366 106.127C33.8015 106.695 31.5947 109.735 30.8256 110.003L33.3 111.406V109.101C33.3669 106.528 29.3543 106.528 29.3209 109.101C29.3209 110.136 29.1203 111.406 29.4546 112.475C29.7556 113.444 30.859 114.246 31.929 113.878C34.1025 113.11 35.6741 110.571 37.2122 108.967L33.8684 107.029L33.4003 109.301C32.9656 111.439 35.9416 112.943 37.0785 110.838C37.6803 110.303 37.881 109.702 37.6469 109L35.7075 107.53C36.2425 109.368 35.4066 110.003 36.1422 111.606C36.6103 112.642 38.0147 112.776 38.8841 112.341C40.3219 111.64 41.5591 110.203 42.7963 109.167L39.4525 107.23C39.1182 108.499 38.5832 109.735 38.6166 111.038C38.6166 111.84 39.2185 112.809 40.0879 112.976C42.5288 113.377 45.137 112.341 47.5111 111.84L45.5717 108.499L43.1307 111.239C41.9269 112.575 43.0638 115.415 45.0701 114.58C48.1798 113.277 51.2895 112.107 54.5664 111.239L52.627 107.898L50.0523 110.537C48.7483 111.84 50.0523 114.68 51.9917 113.878L62.2906 109.668L60.0168 106.728C58.9134 108.733 57.7096 109.802 56.0377 111.205L58.8799 114.045C60.2509 112.375 60.5518 111.94 61.6553 110.069L58.1777 108.031C57.4087 109.635 57.2415 109.969 56.8402 111.673C56.439 113.377 58.2446 114.747 59.7827 113.945C61.6553 112.943 63.4275 111.907 65.1662 110.704L62.1568 108.967V110.236C63.5278 110.069 64.8319 109.869 66.1359 109.702L65.7681 107.798C65.3334 105.592 61.5884 106.06 61.8224 108.332L62.1234 111.406C62.3909 113.945 66.4034 113.978 66.1359 111.406L66.1025 111.339Z" fill="#C79B6C"/>
<path d="M68.3764 16.6885C54.7003 15.4857 40.9908 15.4857 27.3481 16.6885C34.7713 -5.46248 61.02 -5.66294 68.3764 16.6885Z" fill="#F3AC44"/>
<path d="M69.6138 21.3324C69.6138 21.3324 69.6138 21.4994 69.9147 21.7333C75.5322 22.6354 90.2115 26.4775 94.3912 29.852C85.2627 27.4798 75.7663 27.2126 66.3703 26.8116C66.3034 26.8116 66.1028 26.6446 64.7318 26.6112C63.2606 26.5444 61.7559 26.4441 60.2512 26.4107C56.4058 26.3105 52.527 26.4107 48.6817 26.4107C45.7057 26.4107 42.7297 26.3439 39.7538 26.4107C38.4831 26.4107 37.1791 26.3773 35.9084 26.4107C34.3034 26.4441 32.665 26.5444 31.0265 26.6112C29.8562 26.6446 29.3546 26.8116 29.1874 26.8116C19.7914 27.246 10.1947 27.413 1.1665 30.0524C5.34623 26.1434 20.4601 23.2033 26.1446 21.3324C35.6744 20.9649 45.271 20.2298 54.9011 20.5305C59.1477 20.6642 63.4946 21.0317 67.7078 21.5328C69.0453 21.6999 69.5469 21.299 69.6472 21.3324H69.6138Z" fill="#F3AC44"/>
<path d="M94.391 29.8522C94.8591 30.2531 96.0629 30.7542 96.0294 31.5895C95.7954 34.7969 76.0002 37.2692 72.857 37.5699C72.4892 36.3337 74.3952 30.5204 74.2948 30.1529C73.9939 29.2508 72.1548 29.2842 71.8539 30.1529C71.6533 30.7208 73.2248 31.1886 71.252 37.9708L68.2092 38.3717C68.7442 34.3625 68.2092 30.4201 66.3701 26.8118C75.7661 27.2128 85.2959 27.48 94.391 29.8522Z" fill="#B16816"/>
<path d="M29.1873 26.8118C27.7161 31.0549 26.947 33.7946 27.5489 38.3717L24.506 37.9708C22.4663 30.8879 24.1382 30.9881 24.1048 30.5538C24.0379 29.7519 22.6001 29.3844 21.9648 29.6517C20.761 30.1194 23.3357 35.6989 22.8676 37.5699C19.9919 37.1356 -1.87645 34.9305 0.12982 30.7542C0.330447 30.3533 0.965766 30.2197 1.13295 30.0526C10.1612 27.4132 19.7913 27.2128 29.1539 26.8118H29.1873Z" fill="#B16816"/>
<path d="M68.3765 16.6885C68.878 18.2253 69.3796 19.7288 69.5802 21.3659C69.4799 21.3659 69.0118 21.7334 67.6408 21.5663C63.4277 21.0652 59.0807 20.6643 54.8341 20.564C45.2375 20.2968 35.6074 20.9984 26.0776 21.3659C26.412 19.7956 26.7798 18.2253 27.2814 16.6885C40.9574 15.4857 54.667 15.4857 68.3096 16.6885H68.3765Z" fill="#4D2515"/>
<path d="M66.3367 108.432C66.3367 111.874 66.7714 115.415 66.5374 118.89L62.458 120.193C59.7495 120.092 54.9679 121.897 52.8947 122.231C52.1257 122.364 51.156 122.298 50.3535 122.431L49.6513 119.792L48.2134 110.671C48.2134 110.671 48.8822 111.072 48.9156 111.072C49.7516 111.205 65.0995 111.573 65.7683 111.072C66.0358 110.905 65.7683 108.9 65.8686 108.432H66.2699H66.3367Z" fill="#C79B6C"/>
<path d="M47.6449 110.236C46.9093 113.31 46.508 116.484 45.8058 119.558C45.7055 120.026 45.4046 122.298 45.3042 122.398L42.763 122.197C39.6533 120.928 36.2092 120.761 32.9991 119.959C32.4641 119.825 29.2207 119.023 29.1538 118.856C29.1538 116.384 29.1872 113.912 29.1538 111.439C29.6888 111.573 29.5216 111.072 29.6553 111.038C31.0932 110.704 41.3251 111.272 44.7024 111.038C45.4046 110.971 47.3105 110.971 47.2436 110.236C47.3774 110.236 47.5111 110.236 47.6449 110.236Z" fill="#C79B6C"/>
<path d="M37.1122 161.187C37.1122 161.187 37.3797 161.187 37.5134 161.187C39.921 161.688 41.4591 163.492 43.1979 165.029C43.3316 165.664 44.1676 166.633 44.6357 168.47C44.8698 169.406 44.9032 170.375 45.0369 171.31C44.0672 171.177 26.5124 171.41 25.5427 171.511C25.6096 170.709 25.4424 169.64 25.5427 168.871C26.0777 165.397 29.8227 161.822 33.2668 161.154C34.9387 160.853 35.574 161.02 37.1122 161.154V161.187Z" fill="#C79B6C"/>
<path d="M62.0903 160.986C62.3578 160.986 62.4581 160.986 62.4915 160.986C62.6587 161.02 65.3672 162.256 65.6347 162.423C67.5072 163.592 69.781 166.766 70.2156 168.905C70.2156 169.038 70.1153 170.809 70.2156 171.344C69.2459 171.21 51.8583 171.41 50.922 171.544C50.688 170.508 50.922 169.506 51.1226 168.504C51.5908 166.499 52.4267 165.731 52.5605 165.062C55.3692 162.156 57.8771 160.519 62.1237 160.986H62.0903Z" fill="#C79B6C"/>
<path d="M59.4486 132.387C59.8165 132.454 61.8562 133.423 62.0902 133.59C62.0902 133.59 62.3912 133.891 62.4915 133.991C65.0662 136.564 64.899 141.107 62.2909 143.546C59.7161 145.918 54.9345 145.918 52.527 143.346C50.1529 140.807 50.4539 136.33 52.9283 134.024C53.597 133.423 54.9011 132.588 55.7705 132.387C56.9408 132.12 58.2449 132.12 59.4152 132.387H59.4486Z" fill="#A2A0A2"/>
<path d="M39.9542 132.387C40.623 132.521 42.3283 133.356 42.7964 133.824C47.1433 137.933 43.3314 142.845 43.1977 143.379C40.3555 145.785 36.3429 146.219 33.4338 143.58C30.926 141.274 30.6919 136.764 33.0326 134.258C33.4338 133.824 35.6407 132.588 36.276 132.421C37.4464 132.153 38.7504 132.153 39.9208 132.421L39.9542 132.387Z" fill="#A2A0A2"/>
<path d="M86.1402 90.7801C84.1005 92.0497 81.0911 91.6822 79.0179 90.5796C75.4066 86.4702 77.7138 84.5658 77.8141 82.8619C79.1517 81.2248 81.9939 79.7213 84.1005 80.022C84.3011 80.022 86.8089 81.5255 87.3439 82.1603C89.3836 84.5658 88.8152 89.1096 86.1402 90.7801Z" fill="#A2A0A2"/>
<path d="M26.1109 87.9189C27.5153 90.2242 27.1809 93.9995 24.9072 95.6366C23.1684 96.8728 19.7912 97.0064 17.9855 95.8371C14.7086 93.6988 14.6083 88.6873 17.6846 86.2818C17.8852 86.1147 19.8915 85.079 20.0253 85.079C21.9312 84.8117 25.0744 86.215 26.1109 87.9189Z" fill="#A2A0A2"/>
<path d="M29.1872 67.6056C29.1872 67.9731 29.5885 69.2427 29.5885 69.3429C29.555 71.0469 29.1872 71.7819 29.1872 72.283C28.8528 72.3499 28.6522 72.9846 28.5853 73.2853C27.0472 75.1897 23.9375 75.9916 21.6637 74.9224C13.8058 71.1471 22.0315 57.4155 29.1872 67.6056Z" fill="#A2A0A2"/>
<path d="M74.0609 74.9223C71.6868 76.0917 68.6774 75.1228 67.1393 73.0848C66.8717 72.7173 66.9386 72.3832 66.5374 72.2829C66.5374 71.7818 66.1361 71.0468 66.1361 70.9799C66.1027 68.9419 66.5374 67.9396 66.5374 67.6389C73.2584 57.382 82.0191 71.1136 74.0609 74.9557V74.9223Z" fill="#A2A0A2"/>
<path d="M86.6437 78.5245C89.8524 76.5893 93.1228 74.697 96.583 73.2339C96.8224 73.258 97.0812 74.0294 97.2369 74.2495C97.5789 74.7493 98.7258 76.904 98.9495 77.4668C99.0946 77.882 99.5211 78.1853 99.2494 78.6709C95.7203 80.9283 91.8228 82.8513 88.4195 85.3447C87.9129 84.2507 87.4967 83.1843 86.9311 82.1218C85.5642 79.5538 84.5259 80.4474 86.628 78.4951L86.6437 78.5245Z" fill="#4C494B"/>
<path d="M24.3051 101.717C24.0376 104.791 23.9039 107.864 23.9039 110.938C23.5695 111.439 22.9007 111.205 22.2654 111.239C21.5966 111.306 19.0888 111.306 18.6207 111.239C18.3866 111.205 18.1525 111.239 17.9185 111.239C17.2497 110.804 17.7179 100.648 17.8182 99.0445C17.885 97.5744 21.2957 98.4765 24.2048 98.2426L24.3051 101.683V101.717Z" fill="#4C494B"/>
<path d="M42.1612 102.519C42.0943 102.953 42.0943 108.132 42.1612 108.399L29.3545 108.599C29.3545 106.495 29.3545 104.39 29.3545 102.318L42.1612 102.519Z" fill="#4D2515"/>
<path d="M66.5371 102.318C66.5371 104.356 66.3365 106.394 66.3365 108.399H65.9353L53.5298 108.198C53.5967 107.898 53.5967 102.886 53.5298 102.519L66.5371 102.318Z" fill="#4D2515"/>
<path d="M77.9972 74.7803C79.2049 77.0763 80.3302 79.4384 81.8085 81.5984C79.7287 82.0487 77.5863 84.4463 76.9012 86.4463C76.7038 85.9137 73.3675 80.6655 71.2981 76.6223C70.7697 74.7159 72.709 76.0993 73.9387 75.8572C75.5483 75.5813 77.1263 74.3549 77.2866 74.4024C77.6267 74.4544 77.4816 75.5059 77.9658 74.7919L77.9972 74.7803Z" fill="#4C494B"/>
<path d="M27.9501 78.7979C27.482 81.8716 26.9804 84.9454 26.1111 87.9189C25.0745 86.215 21.9313 84.8117 20.0254 85.079C20.5938 82.3728 20.8948 79.7 21.2291 76.9604C23.8038 76.8935 25.576 77.3613 27.8164 75.7576L27.9167 78.7979H27.9501Z" fill="#4C494B"/>
<path d="M22.2656 116.751C26.111 117.152 28.4182 124.703 26.4453 125.271C24.5728 125.806 25.3753 122.765 24.3053 120.894C22.8006 118.255 19.624 118.99 18.8215 121.496C17.5174 125.672 21.8309 127.042 21.4631 128.612C20.5937 132.22 12.4014 122.164 18.8215 117.754C19.3899 117.353 21.5634 116.685 22.2656 116.751Z" fill="#33140B"/>
<path d="M104.829 76.2851C104.093 75.819 102.75 74.4867 102.426 73.7457C102.244 73.3185 102.226 70.5986 102.384 70.0497C103.942 65.0447 111.513 64.2253 110.987 66.3327C110.592 67.8713 107.06 67.2406 105.555 68.8696C103.678 70.8879 104.373 74.1541 106.876 74.7678C109.506 75.4341 111.486 70.5348 112.869 72.1481C114.072 73.5007 108.717 78.6787 104.856 76.3051L104.829 76.2851Z" fill="#33140B"/>
<path d="M43.1977 143.346C42.8298 144.716 42.8633 163.392 43.1977 165.062C41.4589 163.492 39.9208 161.688 37.5132 161.22C40.3555 161.521 42.6627 162.791 42.7964 162.523V148.124C40.6564 148.357 38.4495 148.157 36.3095 148.224C35.4401 148.224 34.5373 148.257 33.6679 148.124C33.4338 150.863 33.9688 159.249 33.6679 160.519C33.6344 160.686 33.4004 160.619 33.2666 160.619L33.4673 143.58C36.3763 146.219 40.3555 145.785 43.2311 143.379L43.1977 143.346Z" fill="#343132"/>
<path d="M62.4914 120.193V133.991C62.4914 133.991 62.1236 133.59 62.0901 133.59L62.2908 124.369C62.157 124.135 59.9836 124.803 59.6492 124.87C58.2782 125.104 56.9407 125.405 55.5698 125.672C54.6335 125.872 53.6638 126.073 52.7275 126.273C52.761 124.937 53.0954 123.567 52.9282 122.197C55.0013 121.897 59.7495 120.092 62.4914 120.159V120.193Z" fill="#343132"/>
<path d="M42.7963 122.231V126.507C41.8601 126.206 40.8904 126.14 39.9541 125.906C38.7169 125.605 37.5131 125.371 36.3094 125.104C35.2394 124.87 34.1694 124.369 33.0659 124.302V120.026C36.2759 120.827 39.72 120.995 42.8298 122.264L42.7963 122.231Z" fill="#343132"/>
<path d="M62.2908 143.547L62.4914 160.987C62.4914 160.987 62.3576 160.987 62.0901 160.987V148.09C61.2208 148.224 60.3179 148.225 59.4486 148.191C58.111 148.158 56.7401 148.191 55.3691 148.191C54.3994 148.191 53.4632 148.258 52.5269 147.991V143.312C54.9344 145.885 59.7161 145.886 62.2908 143.514V143.547Z" fill="#343132"/>
<path d="M36.2762 148.19C36.4769 149.928 36.0087 159.917 36.2762 160.485C36.5437 161.087 37.6137 160.485 37.0787 161.187C35.5072 161.053 34.9053 160.886 33.2334 161.187V160.586C33.2334 160.586 33.6012 160.619 33.6346 160.485C33.9356 159.249 33.4006 150.83 33.6346 148.09C34.504 148.224 35.4068 148.224 36.2762 148.19Z" fill="#4C494B"/>
<path d="M36.2761 125.071V132.387C35.6408 132.521 33.4339 133.757 33.0327 134.225V124.269C34.1361 124.369 35.2061 124.837 36.2761 125.071Z" fill="#4C494B"/>
<path d="M96.9962 75.0292L102.718 71.9835C102.694 72.7917 103.308 74.5861 103.805 75.3065L98.7088 78.2466C98.4851 77.6838 97.3381 75.529 96.9962 75.0292Z" fill="#C79B6C"/>
<path d="M22.2658 111.272V116.751C21.5636 116.685 19.3901 117.386 18.8217 117.754L18.6211 111.272C19.1226 111.339 21.597 111.339 22.2658 111.272Z" fill="#C79B6C"/>
<path d="M24.9072 95.6365C24.9072 97.6745 24.4725 99.7126 24.3053 101.717L24.205 98.2759C21.2959 98.5098 17.8852 97.6077 17.8184 99.0778C17.8852 98.0086 17.8184 96.9061 18.019 95.837C19.7912 97.0063 23.2018 96.8727 24.9406 95.6365H24.9072Z" fill="#343132"/>
<path d="M84.2746 80.4328C85.4094 79.6656 86.4415 78.8062 87.5388 77.9836C85.7001 80.1552 86.5922 79.1483 88.2216 81.5583C88.8959 82.5555 89.4406 83.5999 90.0408 84.6068C89.3961 85.2042 88.6863 85.7649 88.079 86.4176C87.8312 84.0826 86.4501 81.3837 84.2558 80.4051L84.2746 80.4328Z" fill="#343132"/>
<path d="M27.9503 78.7979L27.85 75.7576C25.6097 77.3947 23.8375 76.8935 21.2627 76.9604C21.3296 76.3256 21.4968 75.5571 21.664 74.9223C23.9378 76.0249 27.0141 75.223 28.5856 73.2852C28.2178 74.7219 28.2178 77.1274 27.9838 78.7645L27.9503 78.7979Z" fill="#343132"/>
<path d="M76.7975 72.7271C77.3064 73.355 77.918 73.9581 78.4268 74.5859C78.0954 75.3823 77.9986 74.3407 77.6833 74.3403C77.4884 74.3435 76.2163 75.8436 74.6947 76.4363C73.5208 76.8914 71.3613 75.9529 72.2609 77.7148C71.5118 76.7643 70.66 75.8385 69.9961 74.835C72.3504 75.7702 75.3997 74.9744 76.8435 72.7378L76.7975 72.7271Z" fill="#343132"/>
<path d="M52.7275 64.1643C52.159 65.6009 50.3868 67.4051 48.8821 67.6055C48.8152 67.6055 48.7149 67.4385 48.0796 67.4051C45.8393 67.3382 43.4652 66.1355 42.7964 63.7634C44.8696 63.8302 46.9093 64.1977 48.9824 64.1643C50.0859 64.1643 51.9918 63.3624 52.7275 64.1643Z" fill="#4C494B"/>
<path d="M42.7967 63.7633C43.4655 66.1354 45.8395 67.3381 48.0799 67.405V100.08C45.6055 100.08 42.663 99.4119 42.1948 102.519L29.3881 102.318C29.3547 92.3289 28.9869 82.2725 29.1875 72.2828C29.1875 71.7817 29.5553 71.0467 29.5888 69.3427C29.5888 69.2425 29.1875 67.9729 29.1875 67.6054C29.1875 66.7702 29.0872 64.799 29.1875 64.4649C29.8897 61.8589 40.2554 63.8635 42.5961 62.928C42.6295 63.1953 42.7298 63.4626 42.7967 63.7298V63.7633Z" fill="#C79B6C"/>
<path d="M48.8821 67.6054V100.08C48.6146 100.08 48.3471 100.08 48.0796 100.08V67.405C48.7149 67.405 48.8152 67.6054 48.8821 67.6054Z" fill="#B58758"/>
<path d="M44.1007 72.0825C46.6754 71.5813 46.6754 75.8244 43.9 75.1228C42.4957 74.7553 42.83 72.3163 44.1007 72.0825Z" fill="#1A0B0C"/>
<path d="M43.9001 90.3577C46.5082 89.6227 46.7423 93.8992 44.1007 93.398C42.596 93.1308 42.6963 90.6918 43.9001 90.3577Z" fill="#1A0B0C"/>
<path d="M43.9001 81.2368C46.2073 80.5686 46.7088 83.943 44.9032 84.2771C42.7632 84.678 42.4288 81.6377 43.9001 81.2368Z" fill="#1A0B0C"/>
<path d="M66.5372 67.6055C66.5372 67.9062 66.069 68.9419 66.1359 70.9465C66.1359 71.0134 66.5372 71.7818 66.5372 72.2495C66.7378 82.2392 66.5706 92.2956 66.5372 102.285L53.5299 102.485C53.0283 99.7461 50.9551 100.147 48.8486 100.046V67.5721C50.3533 67.3716 52.1255 65.5675 52.6939 64.1309C52.8945 63.6631 53.2958 63.162 53.2958 63.1286C63.7618 63.7634 66.604 60.723 66.5037 67.6055H66.5372Z" fill="#C79B6C"/>
<path d="M51.0221 72.0825C53.0618 71.5145 53.8309 74.6216 52.2259 75.1228C49.6177 75.958 49.5843 72.45 51.0221 72.0825Z" fill="#1A0B0C"/>
<path d="M51.0223 90.3577C53.6639 89.6561 53.8311 93.8658 51.2229 93.398C49.852 93.1642 49.6513 90.7252 51.0223 90.3577Z" fill="#1A0B0C"/>
<path d="M50.8213 81.237C53.3291 80.4017 53.8307 83.9766 51.8244 84.2773C50.0188 84.578 49.4169 81.7047 50.8213 81.237Z" fill="#1A0B0C"/>
<path d="M35.8747 26.4109C30.3909 32.6252 31.6949 42.4144 38.0147 47.5261C49.3836 56.6805 66.905 46.3902 62.6918 31.2888C62.2237 29.5515 61.1202 27.9478 60.2509 26.4109C61.7221 26.4443 63.2268 26.5446 64.7315 26.6114C65.3 28.8833 66.5372 31.0215 66.7712 33.427C68.9447 56.1459 37.4797 61.9927 30.1902 42.548C28.0837 36.9685 28.8862 31.9904 30.9928 26.6114C32.5978 26.5446 34.2697 26.4443 35.8747 26.4109Z" fill="#A2A0A2"/>
<path d="M30.9929 26.6113C28.8863 31.9903 28.0838 36.935 30.1904 42.5479C37.4798 61.9926 68.9448 56.1124 66.7714 33.4269C66.5373 31.0214 65.3001 28.9166 64.7317 26.6113C66.0692 26.6781 66.2698 26.8117 66.3701 26.8117C68.1757 30.42 68.7442 34.3624 68.2092 38.3716C67.2395 45.5548 62.391 51.4016 55.9041 54.4085C54.6669 54.9765 52.8278 54.8428 53.1622 56.0456C49.3837 56.7472 46.7087 56.9143 42.7964 56.2461C43.1643 54.9765 39.9877 54.776 36.8111 52.8048C31.9626 49.7645 28.3179 44.0514 27.5822 38.4051C26.9803 33.8279 27.716 31.0882 29.2207 26.8451C29.3879 26.8451 29.8894 26.6781 31.0598 26.6447L30.9929 26.6113Z" fill="#4C494B"/>
<path d="M60.251 26.4107C61.1204 27.9476 62.1904 29.5513 62.6919 31.2886C62.6919 33.193 59.1141 29.8186 54.4662 28.4487C50.5875 27.2794 45.4046 27.2794 47.879 26.6112C48.3137 26.6112 48.7149 26.7114 48.6815 26.4107C52.5269 26.4107 56.4056 26.3105 60.251 26.4107Z" fill="#C3E6E9"/>
<path d="M25.5089 171.544C26.4786 171.444 44.0334 171.21 45.0031 171.344C46.3072 171.511 45.8391 173.682 45.7053 173.783C44.8359 174.384 27.1473 173.315 24.5726 173.783C24.4389 173.682 23.6029 171.778 25.4754 171.544H25.5089Z" fill="#4D2515"/>
<path d="M50.9217 171.544C51.8914 171.41 69.2791 171.21 70.2153 171.344C71.8538 171.577 71.2519 173.682 71.1181 173.783C70.2488 174.384 52.7608 173.315 50.1861 173.783C50.0523 173.682 49.3501 171.778 50.8883 171.544H50.9217Z" fill="#4D2515"/>
<path d="M48.2801 110.637L49.718 119.758L45.8726 119.558C46.5414 116.451 46.9426 113.31 47.7117 110.236C47.7786 110.236 47.8454 110.236 47.9123 110.236C47.9123 110.47 48.1464 110.537 48.3136 110.637H48.2801Z" fill="#1A0B0C"/>
<path d="M37.5134 161.187C37.5134 161.187 37.2458 161.187 37.1121 161.187C37.6471 160.485 36.5771 161.053 36.3096 160.485C36.0421 159.917 36.5102 149.961 36.3096 148.19C38.483 148.124 40.6565 148.324 42.7965 148.09V162.49C42.6628 162.724 40.3556 161.488 37.5134 161.187Z" fill="#4C494B"/>
<path d="M55.3693 148.19L55.6703 161.588L59.4153 160.686V148.19C60.2847 148.19 61.1875 148.224 62.0569 148.09V160.986C57.8103 160.519 55.3025 162.122 52.4937 165.062C52.6943 163.993 52.4937 151.231 52.4937 148.023C53.4299 148.291 54.3662 148.224 55.3359 148.224L55.3693 148.19Z" fill="#4C494B"/>
<path d="M59.649 124.87L59.4484 132.387C58.278 132.12 56.974 132.12 55.8036 132.387L55.603 125.705C56.974 125.405 58.278 125.137 59.6824 124.903L59.649 124.87Z" fill="#4C494B"/>
<path d="M62.0902 133.59C61.8562 133.39 59.8165 132.454 59.4487 132.387L59.6493 124.87C59.9837 124.803 62.1571 124.102 62.2909 124.369L62.0902 133.59Z" fill="#4C494B"/>
<path d="M55.5696 125.672L55.7702 132.354C54.9008 132.554 53.5968 133.356 52.928 133.991C52.6271 131.485 52.6605 128.812 52.7274 126.273C53.6636 126.073 54.6333 125.872 55.5696 125.672Z" fill="#4C494B"/>
<path d="M39.9543 125.872V132.354C38.784 132.087 37.4799 132.087 36.3096 132.354V125.037C37.5468 125.304 38.7505 125.538 39.9543 125.839V125.872Z" fill="#4C494B"/>
<path d="M42.7963 126.474V133.791C42.3282 133.356 40.6228 132.521 39.9541 132.354V125.872C40.8904 126.106 41.8935 126.173 42.7963 126.474Z" fill="#4C494B"/>
<path d="M52.7276 57.6826V61.625C52.3264 62.5605 44.3013 62.5271 43.0641 61.7252L42.7632 57.6492C46.0401 58.2506 49.4173 58.2172 52.7276 57.6492V57.6826Z" fill="#4C494B"/>
<path d="M59.4483 148.19V160.686L55.7032 161.588L55.4023 148.19C56.7398 148.19 58.1108 148.157 59.4817 148.19H59.4483Z" fill="#4C494B"/>
<path d="M39.7536 26.4108C31.3273 33.1931 36.5436 29.3843 40.6564 28.0479C42.0274 27.6136 46.508 26.6447 47.879 26.6113C45.438 27.2795 50.6209 27.2795 54.4662 28.4488C59.1141 29.8187 62.6919 33.1931 62.6919 31.2887C66.8717 46.3901 49.3502 56.6804 38.0148 47.526C31.6951 42.4477 30.4244 32.6251 35.8748 26.4108C37.1454 26.3774 38.4495 26.4108 39.7202 26.4108H39.7536Z" fill="#C3E6E9"/>
<path d="M48.6816 26.4108C48.6816 26.7115 48.3138 26.6113 47.8791 26.6113C46.5081 26.6113 42.0609 27.5802 40.6565 28.0479C36.5102 29.3843 31.3274 33.1931 39.7537 26.4108C42.7297 26.344 45.7056 26.4108 48.6816 26.4108Z" fill="#E5F3F6"/>
<path d="M55.2686 33.7276C60.184 32.7253 60.3512 41.011 56.4724 41.4454C52.2258 41.9131 51.7911 34.4627 55.2686 33.7276Z" fill="#4C494B"/>
<path d="M38.8174 33.7276C43.6994 32.7253 43.9669 41.011 40.0212 41.4454C35.7746 41.9131 35.4402 34.4293 38.8174 33.7276Z" fill="#4C494B"/>
<path d="M41.2582 44.6863C41.6929 44.5192 45.1704 47.5929 50.3867 46.5238C52.393 46.1229 55.3689 43.3833 54.7671 45.6217C54.5999 46.1897 51.2561 47.6264 50.5873 47.76C44.9364 48.8959 39.3522 45.4881 41.2582 44.7197V44.6863Z" fill="#1C1A1A"/>
<path d="M48.0797 100.113C48.3472 100.113 48.6147 100.113 48.8822 100.113C50.9888 100.213 53.0619 99.8128 53.5635 102.552C53.6304 102.92 53.6304 107.931 53.5635 108.232C53.0285 110.804 49.7181 110.236 47.8791 110.27C47.8122 110.27 47.7453 110.27 47.6784 110.27C47.5447 110.27 47.4109 110.27 47.2772 110.27C45.6053 110.203 42.7296 110.738 42.1946 108.432C42.1278 108.132 42.1278 102.986 42.1946 102.552C42.6962 99.4453 45.6387 100.08 48.0797 100.113Z" fill="#FAC90B"/>
<path d="M44.3014 101.316C44.8699 101.149 50.5209 101.316 51.8249 101.516C52.3265 101.851 52.4937 108.165 51.9252 108.733L43.9002 108.833C43.2314 108.399 42.7967 101.75 44.3014 101.316Z" fill="#4D2515"/>
<path d="M22.0315 37.4696C28.485 37.4696 28.485 27.4465 22.0315 27.4465C15.578 27.4465 15.578 37.4696 22.0315 37.4696Z" fill="#B16816"/>
<path d="M73.6595 37.4696C80.113 37.4696 80.113 27.4465 73.6595 27.4465C67.206 27.4465 67.206 37.4696 73.6595 37.4696Z" fill="#B16816"/>
<path d="M34.6709 114.546L35.975 114.312C37.5466 114.045 39.2519 113.544 40.556 112.575C41.1913 112.107 42.1276 111.205 41.3251 110.437L39.8872 109.034L32.2634 113.009C32.765 113.009 33.2331 113.11 33.7347 113.21L32.8653 113.043C33.6344 113.21 34.4034 113.444 35.1056 113.745C35.44 113.912 35.7744 114.079 36.1088 114.212C36.7106 114.48 37.3125 114.58 37.9813 114.713C38.5497 114.78 39.0847 114.747 39.6532 114.713C40.2885 114.68 40.9238 114.546 41.5591 114.379C42.1944 114.212 42.7963 114.012 43.3982 113.711C43.9332 113.511 44.4013 113.243 44.8695 112.909L45.5382 112.341C45.8726 112.041 46.0063 111.673 45.9395 111.239C45.672 110.537 44.836 110.437 44.1673 110.303H44.067C44.3679 110.337 44.6354 110.403 44.9363 110.47C43.9666 110.27 43.1307 109.702 42.1944 109.368C40.9907 108.967 39.72 108.7 38.4494 108.633C37.4463 108.566 36.51 108.633 35.5403 108.867C34.5037 109.101 33.4337 109.401 32.4975 109.902C31.929 110.203 31.3606 110.571 30.9259 111.038C30.6584 111.272 30.5246 111.539 30.5246 111.874C30.4578 112.174 30.5246 112.408 30.8256 112.609L32.2634 114.012L37.6135 110.136L36.3094 110.37C35.0722 110.571 33.7347 110.971 32.6312 111.573C32.1631 111.773 31.7618 112.074 31.394 112.408C31.0931 112.642 30.859 112.909 30.6918 113.277V113.811C30.8256 114.212 31.1265 114.48 31.5612 114.58C32.5643 114.88 33.7012 114.814 34.6709 114.647V114.546Z" fill="#C79B6C"/>
</svg>
