<svg width="96" height="174" viewBox="0 0 96 174" fill="none" xmlns="http://www.w3.org/2000/svg">
<g clip-path="url(#clip0_88_337)">
<mask id="mask0_88_337" style="mask-type:luminance" maskUnits="userSpaceOnUse" x="0" y="0" width="96" height="174">
<path d="M96 0H0V174H96V0Z" fill="white"/>
</mask>
<g mask="url(#mask0_88_337)">
<path d="M49.0197 61.508C47.8829 61.8087 46.7794 61.9423 45.5756 61.9423C43.0009 61.9423 43.0009 65.9181 45.5756 65.9515C47.0804 65.9515 48.6185 65.7845 50.0898 65.3835C52.5976 64.7153 51.5276 60.8398 49.0197 61.508Z" fill="#C79B6C"/>
<path d="M51.327 65.3503C53.9017 65.3503 53.9017 61.3411 51.327 61.3411C48.7523 61.3411 48.7523 65.3503 51.327 65.3503Z" fill="#C79B6C"/>
<path d="M44.5057 65.4505C47.0805 65.4505 47.0805 61.4412 44.5057 61.4412C41.931 61.4412 41.931 65.4505 44.5057 65.4505Z" fill="#C79B6C"/>
<path d="M44.6059 65.1497C47.1806 65.1497 47.1806 61.1404 44.6059 61.1404C42.0311 61.1404 42.0311 65.1497 44.6059 65.1497Z" fill="#C79B6C"/>
<path d="M51.1263 58.4008C53.701 58.4008 53.701 54.3916 51.1263 54.3916C48.5516 54.3916 48.5516 58.4008 51.1263 58.4008Z" fill="#C79B6C"/>
<path d="M46.5454 59.0024C47.7491 59.136 48.9529 59.136 50.1566 59.0024C51.2267 58.8688 52.1629 58.1671 52.1629 56.9978C52.1629 56.0289 51.2267 54.8595 50.1566 54.9932C48.9529 55.1602 47.7491 55.1602 46.5454 54.9932C45.4753 54.8595 44.5391 55.9955 44.5391 56.9978C44.5391 58.2006 45.4753 58.8688 46.5454 59.0024Z" fill="#C79B6C"/>
<path d="M44.7396 59.0356C47.3143 59.0356 47.3143 55.0264 44.7396 55.0264C42.1649 55.0264 42.1649 59.0356 44.7396 59.0356Z" fill="#C79B6C"/>
<path d="M66.1064 111.356L65.8054 108.282L61.8598 108.817L62.2276 110.721C62.6623 112.96 66.2401 112.425 66.1733 110.187V108.917C66.073 107.48 64.4345 106.311 63.097 107.18C61.3248 108.382 59.586 109.418 57.7135 110.421L60.656 112.692L61.5923 110.02C62.6957 107.714 59.4523 105.743 58.1147 107.982L55.9413 111.156C54.3363 113.16 56.7772 115.666 58.7835 113.995C60.656 112.392 62.1942 110.855 63.3645 108.717C64.1336 107.347 62.8295 105.075 61.0907 105.776L50.7919 109.986L52.7313 113.327L55.306 110.688C56.7104 109.251 55.306 106.812 53.3666 107.347C50.0897 108.215 47.0134 109.418 43.8702 110.688L45.8096 114.029L48.2506 111.289C49.5881 109.786 48.284 107.514 46.3112 107.948C45.1743 108.215 42.2318 109.318 41.028 109.084L42.4993 111.022C42.6665 110.086 42.9005 109.184 43.2015 108.249C43.7699 106.211 41.2955 105.041 39.8577 106.311C38.8546 107.18 37.818 108.048 36.7814 108.884L39.5233 109.619C39.7239 110.053 39.5902 106.812 39.5233 106.478C39.2893 105.71 38.4533 104.941 37.5839 105.008C35.3436 105.209 34.5411 106.946 33.5379 108.817L37.2161 110.354L37.6842 108.082C38.0855 106.211 35.7783 104.574 34.3405 106.144C33.8054 106.712 31.5986 109.752 30.8295 110.02L33.3039 111.423V109.118C33.3708 106.545 29.3582 106.545 29.3248 109.118C29.3248 110.153 29.1242 111.423 29.4585 112.492C29.7595 113.461 30.8629 114.263 31.9329 113.895C34.1064 113.127 35.678 110.588 37.2161 108.984L33.8723 107.046L33.4042 109.318C32.9695 111.456 35.9455 112.96 37.0824 110.855C37.6842 110.32 37.8849 109.719 37.6508 109.017L35.7114 107.547C36.2464 109.385 35.4105 110.02 36.1461 111.623C36.6142 112.659 38.0186 112.793 38.888 112.358C40.3258 111.657 41.563 110.22 42.8002 109.184L39.4564 107.247C39.1221 108.516 38.5871 109.752 38.6205 111.055C38.6205 111.857 39.2224 112.826 40.0918 112.993C42.5327 113.394 45.1409 112.358 47.515 111.857L45.5756 108.516L43.1346 111.256C41.9308 112.592 43.0677 115.432 45.074 114.597C48.1837 113.294 51.2934 112.124 54.5703 111.256L52.6309 107.915L50.0562 110.554C48.7522 111.857 50.0562 114.697 51.9956 113.895L62.2945 109.685L60.0207 106.745C58.9173 108.75 57.7135 109.819 56.0416 111.222L58.8838 114.062C60.2548 112.392 60.5557 111.957 61.6592 110.086L58.1816 108.048C57.4126 109.652 57.2454 109.986 56.8441 111.69C56.4429 113.394 58.2485 114.764 59.7866 113.962C61.6592 112.96 63.4314 111.924 65.1701 110.721L62.1607 108.984V110.253C63.5317 110.086 64.8358 109.886 66.1398 109.719L65.772 107.815C65.3373 105.609 61.5923 106.077 61.8263 108.349L62.1273 111.423C62.3948 113.962 66.4073 113.995 66.1398 111.423L66.1064 111.356Z" fill="#C79B6C"/>
<path d="M68.3804 16.7051C54.7043 15.5023 40.9948 15.5023 27.3521 16.7051C34.7753 -5.44588 61.024 -5.64634 68.3804 16.7051Z" fill="#F3AC44"/>
<path d="M69.6177 21.349C69.6177 21.349 69.6177 21.516 69.9186 21.7499C75.5361 22.652 90.2154 26.4941 94.3951 29.8686C85.2666 27.4964 75.7702 27.2292 66.3742 26.8282C66.3073 26.8282 66.1067 26.6612 64.7357 26.6278C63.2645 26.561 61.7598 26.4607 60.2551 26.4273C56.4097 26.3271 52.5309 26.4273 48.6856 26.4273C45.7096 26.4273 42.7336 26.3605 39.7577 26.4273C38.487 26.4273 37.183 26.3939 35.9123 26.4273C34.3073 26.4607 32.6689 26.561 31.0304 26.6278C29.8601 26.6612 29.3585 26.8282 29.1913 26.8282C19.7953 27.2626 10.1986 27.4296 1.17041 30.069C5.35014 26.16 20.464 23.2199 26.1485 21.349C35.6783 20.9815 45.2749 20.2464 54.905 20.5471C59.1516 20.6808 63.4985 21.0483 67.7117 21.5494C69.0492 21.7165 69.5508 21.3156 69.6511 21.349H69.6177Z" fill="#F3AC44"/>
<path d="M94.3949 29.8688C94.863 30.2697 96.0668 30.7708 96.0333 31.6061C95.7993 34.8135 76.0041 37.2858 72.8609 37.5865C72.4931 36.3503 74.3991 30.537 74.2987 30.1695C73.9978 29.2674 72.1587 29.3008 71.8578 30.1695C71.6572 30.7374 73.2287 31.2052 71.2559 37.9874L68.2131 38.3883C68.7481 34.3791 68.2131 30.4367 66.374 26.8284C75.77 27.2294 85.2998 27.4966 94.3949 29.8688Z" fill="#B16816"/>
<path d="M29.1912 26.8284C27.72 31.0715 26.9509 33.8112 27.5528 38.3883L24.5099 37.9874C22.4702 30.9045 24.1421 31.0047 24.1087 30.5704C24.0418 29.7685 22.604 29.401 21.9687 29.6683C20.7649 30.136 23.3396 35.7155 22.8715 37.5865C19.9958 37.1522 -1.87254 34.9471 0.133726 30.7708C0.334353 30.3699 0.969672 30.2363 1.13686 30.0692C10.1651 27.4298 19.7952 27.2294 29.1578 26.8284H29.1912Z" fill="#B16816"/>
<path d="M68.3804 16.7051C68.8819 18.2419 69.3835 19.7454 69.5841 21.3825C69.4838 21.3825 69.0157 21.75 67.6447 21.5829C63.4316 21.0818 59.0846 20.6809 54.838 20.5806C45.2414 20.3134 35.6113 21.015 26.0815 21.3825C26.4159 19.8122 26.7837 18.2419 27.2853 16.7051C40.9613 15.5023 54.6709 15.5023 68.3135 16.7051H68.3804Z" fill="#4D2515"/>
<path d="M66.3406 108.449C66.3406 111.891 66.7753 115.432 66.5413 118.907L62.4619 120.21C59.7534 120.109 54.9718 121.914 52.8986 122.248C52.1296 122.381 51.1599 122.315 50.3574 122.448L49.6552 119.809L48.2173 110.688C48.2173 110.688 48.8861 111.089 48.9195 111.089C49.7555 111.222 65.1034 111.59 65.7722 111.089C66.0397 110.922 65.7722 108.917 65.8725 108.449H66.2738H66.3406Z" fill="#C79B6C"/>
<path d="M47.6488 110.253C46.9132 113.327 46.5119 116.501 45.8097 119.575C45.7094 120.043 45.4085 122.315 45.3081 122.415L42.7669 122.214C39.6572 120.945 36.2131 120.778 33.003 119.976C32.468 119.842 29.2246 119.04 29.1577 118.873C29.1577 116.401 29.1911 113.929 29.1577 111.456C29.6927 111.59 29.5255 111.089 29.6592 111.055C31.0971 110.721 41.329 111.289 44.7063 111.055C45.4085 110.988 47.3144 110.988 47.2475 110.253C47.3813 110.253 47.515 110.253 47.6488 110.253Z" fill="#C79B6C"/>
<path d="M37.1161 161.204C37.1161 161.204 37.3836 161.204 37.5173 161.204C39.9249 161.705 41.463 163.509 43.2018 165.046C43.3355 165.681 44.1715 166.65 44.6396 168.487C44.8737 169.423 44.9071 170.392 45.0408 171.327C44.0711 171.194 26.5163 171.427 25.5466 171.528C25.6135 170.726 25.4463 169.657 25.5466 168.888C26.0816 165.414 29.8266 161.839 33.2707 161.171C34.9426 160.87 35.5779 161.037 37.1161 161.171V161.204Z" fill="#C79B6C"/>
<path d="M62.0942 161.003C62.3617 161.003 62.462 161.003 62.4954 161.003C62.6626 161.037 65.3711 162.273 65.6386 162.44C67.5111 163.609 69.7849 166.783 70.2195 168.922C70.2195 169.055 70.1192 170.826 70.2195 171.361C69.2498 171.227 51.8622 171.427 50.9259 171.561C50.6919 170.525 50.9259 169.523 51.1265 168.521C51.5947 166.516 52.4306 165.748 52.5644 165.079C55.3731 162.173 57.881 160.536 62.1276 161.003H62.0942Z" fill="#C79B6C"/>
<path d="M59.4525 132.404C59.8204 132.471 61.8601 133.44 62.0941 133.607C62.0941 133.607 62.3951 133.908 62.4954 134.008C65.0701 136.581 64.9029 141.124 62.2948 143.563C59.72 145.935 54.9384 145.935 52.5309 143.363C50.1568 140.824 50.4578 136.347 52.9322 134.041C53.6009 133.44 54.905 132.605 55.7744 132.404C56.9447 132.137 58.2488 132.137 59.4191 132.404H59.4525Z" fill="#A2A0A2"/>
<path d="M39.9581 132.404C40.6269 132.538 42.3322 133.373 42.8003 133.841C47.1472 137.95 43.3353 142.862 43.2016 143.396C40.3594 145.802 36.3468 146.236 33.4377 143.597C30.9299 141.291 30.6958 136.781 33.0365 134.275C33.4377 133.841 35.6446 132.605 36.2799 132.438C37.4503 132.17 38.7543 132.17 39.9247 132.438L39.9581 132.404Z" fill="#A2A0A2"/>
<path d="M42.1651 102.536C42.0982 102.97 42.0982 108.149 42.1651 108.416L29.3584 108.616C29.3584 106.512 29.3584 104.407 29.3584 102.335L42.1651 102.536Z" fill="#4D2515"/>
<path d="M66.541 102.335C66.541 104.373 66.3404 106.411 66.3404 108.416H65.9392L53.5337 108.215C53.6006 107.915 53.6006 102.903 53.5337 102.536L66.541 102.335Z" fill="#4D2515"/>
<path d="M43.2016 143.363C42.8337 144.733 42.8672 163.409 43.2016 165.079C41.4628 163.509 39.9247 161.705 37.5171 161.237C40.3594 161.538 42.6666 162.808 42.8003 162.54V148.141C40.6603 148.374 38.4534 148.174 36.3134 148.241C35.444 148.241 34.5412 148.274 33.6718 148.141C33.4377 150.88 33.9727 159.266 33.6718 160.536C33.6383 160.703 33.4043 160.636 33.2705 160.636L33.4712 143.597C36.3802 146.236 40.3594 145.802 43.235 143.396L43.2016 143.363Z" fill="#343132"/>
<path d="M62.4953 120.21V134.008C62.4953 134.008 62.1275 133.607 62.094 133.607L62.2947 124.386C62.1609 124.152 59.9875 124.82 59.6531 124.887C58.2821 125.121 56.9446 125.422 55.5737 125.689C54.6374 125.889 53.6677 126.09 52.7314 126.29C52.7649 124.954 53.0993 123.584 52.9321 122.214C55.0052 121.914 59.7534 120.109 62.4953 120.176V120.21Z" fill="#343132"/>
<path d="M42.8002 122.248V126.524C41.864 126.223 40.8943 126.157 39.958 125.923C38.7208 125.622 37.517 125.388 36.3133 125.121C35.2433 124.887 34.1733 124.386 33.0698 124.319V120.043C36.2798 120.844 39.7239 121.012 42.8337 122.281L42.8002 122.248Z" fill="#343132"/>
<path d="M62.2947 143.563L62.4953 161.003C62.4953 161.003 62.3615 161.003 62.094 161.003V148.107C61.2247 148.241 60.3218 148.241 59.4525 148.207C58.1149 148.174 56.744 148.207 55.373 148.207C54.4033 148.207 53.4671 148.274 52.5308 148.007V143.329C54.9383 145.902 59.72 145.902 62.2947 143.53V143.563Z" fill="#343132"/>
<path d="M36.2801 148.207C36.4808 149.945 36.0126 159.934 36.2801 160.502C36.5476 161.104 37.6176 160.502 37.0826 161.204C35.5111 161.07 34.9092 160.903 33.2373 161.204V160.603C33.2373 160.603 33.6051 160.636 33.6385 160.502C33.9395 159.266 33.4045 150.847 33.6385 148.107C34.5079 148.241 35.4107 148.241 36.2801 148.207Z" fill="#4C494B"/>
<path d="M36.28 125.088V132.404C35.6447 132.538 33.4378 133.774 33.0366 134.242V124.286C34.14 124.386 35.21 124.854 36.28 125.088Z" fill="#4C494B"/>
<path d="M52.7314 64.1809C52.1629 65.6175 50.3907 67.4217 48.886 67.6221C48.8191 67.6221 48.7188 67.4551 48.0835 67.4217C45.8432 67.3548 43.4691 66.1521 42.8003 63.78C44.8735 63.8468 46.9132 64.2143 48.9863 64.1809C50.0898 64.1809 51.9957 63.379 52.7314 64.1809Z" fill="#4C494B"/>
<path d="M42.8006 63.7799C43.4694 66.152 45.8434 67.3547 48.0838 67.4216V100.097C45.6094 100.097 42.6669 99.4285 42.1987 102.536L29.392 102.335C29.3586 92.3455 28.9908 82.2891 29.1914 72.2994C29.1914 71.7983 29.5592 71.0633 29.5927 69.3593C29.5927 69.2591 29.1914 67.9895 29.1914 67.622C29.1914 66.7868 29.0911 64.8156 29.1914 64.4815C29.8936 61.8755 40.2593 63.8801 42.6 62.9446C42.6334 63.2119 42.7337 63.4792 42.8006 63.7464V63.7799Z" fill="#C79B6C"/>
<path d="M48.886 67.622V100.097C48.6185 100.097 48.351 100.097 48.0835 100.097V67.4216C48.7188 67.4216 48.8191 67.622 48.886 67.622Z" fill="#B58758"/>
<path d="M44.1046 72.0991C46.6793 71.5979 46.6793 75.841 43.9039 75.1394C42.4996 74.7719 42.8339 72.3329 44.1046 72.0991Z" fill="#1A0B0C"/>
<path d="M43.904 90.3743C46.5121 89.6393 46.7462 93.9158 44.1046 93.4146C42.5999 93.1474 42.7002 90.7084 43.904 90.3743Z" fill="#1A0B0C"/>
<path d="M43.904 81.2534C46.2112 80.5852 46.7127 83.9596 44.9071 84.2937C42.7671 84.6946 42.4327 81.6543 43.904 81.2534Z" fill="#1A0B0C"/>
<path d="M66.5411 67.6221C66.5411 67.9228 66.0729 68.9585 66.1398 70.9631C66.1398 71.03 66.5411 71.7984 66.5411 72.2661C66.7417 82.2558 66.5745 92.3122 66.5411 102.302L53.5338 102.502C53.0322 99.7627 50.959 100.164 48.8525 100.063V67.5887C50.3572 67.3882 52.1294 65.5841 52.6978 64.1475C52.8984 63.6797 53.2997 63.1786 53.2997 63.1452C63.7657 63.78 66.6079 60.7396 66.5076 67.6221H66.5411Z" fill="#C79B6C"/>
<path d="M51.026 72.0991C53.0657 71.5311 53.8348 74.6382 52.2298 75.1394C49.6216 75.9746 49.5882 72.4666 51.026 72.0991Z" fill="#1A0B0C"/>
<path d="M51.0262 90.3743C53.6678 89.6727 53.835 93.8824 51.2268 93.4146C49.8559 93.1808 49.6552 90.7418 51.0262 90.3743Z" fill="#1A0B0C"/>
<path d="M50.8253 81.2536C53.3331 80.4183 53.8347 83.9932 51.8284 84.2939C50.0228 84.5946 49.4209 81.7213 50.8253 81.2536Z" fill="#1A0B0C"/>
<path d="M35.8786 26.4275C30.3948 32.6418 31.6988 42.431 38.0186 47.5427C49.3875 56.6971 66.9089 46.4068 62.6957 31.3054C62.2276 29.5681 61.1241 27.9644 60.2548 26.4275C61.726 26.4609 63.2307 26.5612 64.7354 26.628C65.3039 28.8999 66.5411 31.0381 66.7751 33.4436C68.9486 56.1625 37.4836 62.0093 30.1941 42.5646C28.0876 36.9851 28.8901 32.007 30.9967 26.628C32.6017 26.5612 34.2736 26.4609 35.8786 26.4275Z" fill="#A2A0A2"/>
<path d="M30.9968 26.6279C28.8902 32.0069 28.0877 36.9516 30.1943 42.5645C37.4837 62.0092 68.9487 56.129 66.7753 33.4435C66.5412 31.038 65.304 28.9332 64.7356 26.6279C66.0731 26.6947 66.2737 26.8283 66.374 26.8283C68.1796 30.4366 68.7481 34.379 68.2131 38.3882C67.2434 45.5714 62.3949 51.4182 55.908 54.4251C54.6708 54.9931 52.8317 54.8594 53.1661 56.0622C49.3876 56.7638 46.7126 56.9309 42.8003 56.2627C43.1682 54.9931 39.9916 54.7926 36.815 52.8214C31.9665 49.7811 28.3218 44.068 27.5861 38.4217C26.9842 33.8445 27.7199 31.1048 29.2246 26.8617C29.3918 26.8617 29.8933 26.6947 31.0637 26.6613L30.9968 26.6279Z" fill="#4C494B"/>
<path d="M60.2549 26.4273C61.1243 27.9642 62.1943 29.5679 62.6958 31.3052C62.6958 33.2096 59.118 29.8352 54.4701 28.4653C50.5914 27.296 45.4085 27.296 47.8829 26.6278C48.3176 26.6278 48.7188 26.728 48.6854 26.4273C52.5308 26.4273 56.4095 26.3271 60.2549 26.4273Z" fill="#C3E6E9"/>
<path d="M25.5133 171.561C26.483 171.461 44.0378 171.227 45.0075 171.361C46.3116 171.528 45.8435 173.699 45.7097 173.8C44.8403 174.401 27.1517 173.332 24.577 173.8C24.4433 173.699 23.6073 171.795 25.4798 171.561H25.5133Z" fill="#4D2515"/>
<path d="M50.9256 171.561C51.8953 171.427 69.283 171.227 70.2192 171.361C71.8577 171.594 71.2558 173.699 71.122 173.8C70.2527 174.401 52.7647 173.332 50.19 173.8C50.0562 173.699 49.354 171.795 50.8922 171.561H50.9256Z" fill="#4D2515"/>
<path d="M48.284 110.654L49.7219 119.775L45.8765 119.575C46.5453 116.468 46.9465 113.327 47.7156 110.253C47.7825 110.253 47.8493 110.253 47.9162 110.253C47.9162 110.487 48.1503 110.554 48.3175 110.654H48.284Z" fill="#1A0B0C"/>
<path d="M37.5173 161.204C37.5173 161.204 37.2497 161.204 37.116 161.204C37.651 160.502 36.581 161.07 36.3135 160.502C36.046 159.934 36.5141 149.978 36.3135 148.207C38.4869 148.141 40.6604 148.341 42.8004 148.107V162.507C42.6667 162.741 40.3595 161.505 37.5173 161.204Z" fill="#4C494B"/>
<path d="M55.3732 148.207L55.6742 161.605L59.4192 160.703V148.207C60.2886 148.207 61.1914 148.241 62.0608 148.107V161.003C57.8142 160.536 55.3064 162.139 52.4976 165.079C52.6982 164.01 52.4976 151.248 52.4976 148.04C53.4338 148.308 54.3701 148.241 55.3398 148.241L55.3732 148.207Z" fill="#4C494B"/>
<path d="M59.6529 124.887L59.4523 132.404C58.2819 132.137 56.9779 132.137 55.8075 132.404L55.6069 125.722C56.9779 125.422 58.2819 125.154 59.6863 124.92L59.6529 124.887Z" fill="#4C494B"/>
<path d="M62.0941 133.607C61.8601 133.407 59.8204 132.471 59.4526 132.404L59.6532 124.887C59.9876 124.82 62.161 124.119 62.2948 124.386L62.0941 133.607Z" fill="#4C494B"/>
<path d="M55.5735 125.689L55.7741 132.371C54.9047 132.571 53.6007 133.373 52.9319 134.008C52.631 131.502 52.6644 128.829 52.7313 126.29C53.6675 126.09 54.6372 125.889 55.5735 125.689Z" fill="#4C494B"/>
<path d="M39.9582 125.889V132.371C38.7879 132.104 37.4838 132.104 36.3135 132.371V125.054C37.5507 125.321 38.7544 125.555 39.9582 125.856V125.889Z" fill="#4C494B"/>
<path d="M42.8002 126.491V133.808C42.3321 133.373 40.6267 132.538 39.958 132.371V125.889C40.8943 126.123 41.8974 126.19 42.8002 126.491Z" fill="#4C494B"/>
<path d="M52.7315 57.6992V61.6416C52.3303 62.5771 44.3052 62.5437 43.068 61.7418L42.7671 57.6658C46.044 58.2672 49.4212 58.2338 52.7315 57.6658V57.6992Z" fill="#4C494B"/>
<path d="M59.4522 148.207V160.703L55.7071 161.605L55.4062 148.207C56.7437 148.207 58.1147 148.174 59.4856 148.207H59.4522Z" fill="#4C494B"/>
<path d="M39.7575 26.4274C31.3312 33.2097 36.5475 29.4009 40.6603 28.0645C42.0313 27.6302 46.5119 26.6613 47.8829 26.6279C45.4419 27.2961 50.6248 27.2961 54.4701 28.4654C59.118 29.8353 62.6958 33.2097 62.6958 31.3053C66.8756 46.4067 49.3541 56.697 38.0187 47.5426C31.699 42.4643 30.4283 32.6417 35.8787 26.4274C37.1493 26.394 38.4534 26.4274 39.7241 26.4274H39.7575Z" fill="#C3E6E9"/>
<path d="M48.6855 26.4274C48.6855 26.7281 48.3177 26.6279 47.883 26.6279C46.512 26.6279 42.0648 27.5968 40.6604 28.0645C36.5141 29.4009 31.3313 33.2097 39.7576 26.4274C42.7336 26.3606 45.7095 26.4274 48.6855 26.4274Z" fill="#E5F3F6"/>
<path d="M55.2725 33.7442C60.1879 32.7419 60.3551 41.0276 56.4763 41.462C52.2297 41.9297 51.795 34.4793 55.2725 33.7442Z" fill="#4C494B"/>
<path d="M38.8213 33.7442C43.7033 32.7419 43.9708 41.0276 40.0251 41.462C35.7785 41.9297 35.4441 34.4459 38.8213 33.7442Z" fill="#4C494B"/>
<path d="M41.2621 44.7029C41.6968 44.5358 45.1743 47.6095 50.3906 46.5404C52.3969 46.1395 55.3728 43.3999 54.771 45.6383C54.6038 46.2063 51.26 47.643 50.5912 47.7766C44.9403 48.9125 39.3561 45.5047 41.2621 44.7363V44.7029Z" fill="#1C1A1A"/>
<path d="M48.0836 100.13C48.3511 100.13 48.6186 100.13 48.8861 100.13C50.9927 100.23 53.0658 99.8294 53.5674 102.569C53.6343 102.937 53.6343 107.948 53.5674 108.249C53.0324 110.821 49.722 110.253 47.883 110.287C47.8161 110.287 47.7492 110.287 47.6823 110.287C47.5486 110.287 47.4148 110.287 47.2811 110.287C45.6092 110.22 42.7335 110.755 42.1985 108.449C42.1317 108.149 42.1317 103.003 42.1985 102.569C42.7001 99.4619 45.6426 100.097 48.0836 100.13Z" fill="#FAC90B"/>
<path d="M44.3053 101.333C44.8738 101.166 50.5248 101.333 51.8288 101.533C52.3304 101.868 52.4976 108.182 51.9291 108.75L43.9041 108.85C43.2353 108.416 42.8006 101.767 44.3053 101.333Z" fill="#4D2515"/>
<path d="M22.0354 37.4862C28.4889 37.4862 28.4889 27.4631 22.0354 27.4631C15.5819 27.4631 15.5819 37.4862 22.0354 37.4862Z" fill="#B16816"/>
<path d="M73.6634 37.4862C80.1169 37.4862 80.1169 27.4631 73.6634 27.4631C67.2099 27.4631 67.2099 37.4862 73.6634 37.4862Z" fill="#B16816"/>
<path d="M34.6748 114.563L35.9789 114.329C37.5505 114.062 39.2558 113.561 40.5599 112.592C41.1952 112.124 42.1315 111.222 41.329 110.454L39.8911 109.051L32.2674 113.026C32.769 113.026 33.237 113.127 33.7386 113.227L32.8692 113.06C33.6383 113.227 34.4073 113.461 35.1095 113.762C35.4439 113.929 35.7783 114.096 36.1127 114.229C36.7145 114.497 37.3164 114.597 37.9852 114.73C38.5536 114.797 39.0886 114.764 39.6571 114.73C40.2924 114.697 40.9278 114.563 41.5631 114.396C42.1984 114.229 42.8003 114.029 43.4022 113.728C43.9372 113.528 44.4052 113.26 44.8734 112.926L45.5421 112.358C45.8765 112.058 46.0102 111.69 45.9434 111.256C45.6759 110.554 44.8399 110.454 44.1712 110.32H44.0709C44.3718 110.354 44.6393 110.42 44.9402 110.487C43.9705 110.287 43.1346 109.719 42.1983 109.385C40.9947 108.984 39.7239 108.717 38.4533 108.65C37.4502 108.583 36.5139 108.65 35.5442 108.884C34.5076 109.118 33.4376 109.418 32.5014 109.919C31.9329 110.22 31.3645 110.588 30.9298 111.055C30.6623 111.289 30.5285 111.556 30.5285 111.891C30.4617 112.191 30.5285 112.425 30.8295 112.626L32.2674 114.029L37.6174 110.153L36.3133 110.387C35.0761 110.588 33.7386 110.988 32.6351 111.59C32.167 111.79 31.7657 112.091 31.3979 112.425C31.097 112.659 30.8629 112.926 30.6957 113.294V113.828C30.8295 114.229 31.1304 114.497 31.5651 114.597C32.5682 114.897 33.7051 114.831 34.6748 114.664V114.563Z" fill="#C79B6C"/>
</g>
<path d="M12.9095 47.6687C14.5633 45.926 17.5682 45.5232 19.8524 46.0677C24.3828 49.1342 22.6301 51.5586 22.9624 53.2328C22.0806 55.1542 19.7091 57.3255 17.5947 57.5654C17.4006 57.616 14.5948 56.7931 13.9171 56.3136C11.337 54.4998 10.7418 49.9594 12.9095 47.6687Z" fill="#A2A0A2"/>
<path d="M21.7407 66.981C23.7434 65.251 26.8999 65.4302 28.902 67.0148C29.2536 67.303 29.273 67.6431 29.6866 67.6391C29.8129 68.124 30.3864 68.7341 30.4033 68.7989C30.9493 70.7627 30.7812 71.8422 30.857 72.1332C26.938 83.7529 14.9993 72.6725 21.7323 66.9487L21.7407 66.981Z" fill="#A2A0A2"/>
<path d="M11.6972 43.8071C10.56 40.2368 9.47899 36.6164 8.85939 32.9109C8.93846 32.6836 9.74884 32.6111 9.99913 32.5107C10.5647 32.2942 12.9268 31.679 13.5262 31.5922C13.9637 31.5474 14.3577 31.203 14.767 31.58C16.1431 35.537 17.1084 39.7744 18.7433 43.6638C17.5615 43.9025 16.4276 44.0597 15.2628 44.363C12.4476 45.0962 13.0756 46.3136 11.6649 43.8155L11.6972 43.8071Z" fill="#4C494B"/>
<path d="M20.7378 64.7221C19.7659 62.3168 18.8826 59.8539 17.6279 57.5569C19.7423 57.317 22.1138 55.1457 22.9955 53.2243C23.1387 53.774 25.9332 59.3296 27.5877 63.5596C27.9227 65.5093 26.1315 63.9388 24.8837 64.0566C23.2547 64.1702 21.5619 65.2325 21.4071 65.1692C21.0739 65.0835 21.3235 64.0518 20.7703 64.7137L20.7378 64.7221Z" fill="#4C494B"/>
<path d="M11.874 25.9119C11.0494 26.1949 9.16992 26.4085 8.38932 26.1974C7.9421 26.0721 5.80933 24.3841 5.48037 23.9169C2.5514 19.5698 6.65031 13.1516 7.96455 14.8812C8.91751 16.152 6.21514 18.5123 6.54433 20.7051C6.94371 23.4325 9.92628 24.9343 11.9712 23.3663C14.1369 21.7317 11.5542 17.1218 13.6785 17.0521C15.486 16.9606 16.1737 24.3778 11.9064 25.9035L11.874 25.9119Z" fill="#33140B"/>
<path d="M10.0232 32.4699L8.38948 26.1971C9.17008 26.4082 11.058 26.2276 11.8741 25.9117L13.5503 31.5513C12.9509 31.6381 10.5887 32.2533 10.0232 32.4699Z" fill="#C79B6C"/>
<path d="M12.9093 47.6688C12.5641 46.3432 12.0978 45.0836 11.6878 43.7749C13.1226 46.2322 12.4706 45.0556 15.2857 44.3224C16.4507 44.019 17.6169 43.8534 18.7663 43.6231C19.1147 44.4299 19.4068 45.2861 19.8198 46.0762C17.5357 45.5317 14.5308 45.9345 12.8769 47.6772L12.9093 47.6688Z" fill="#343132"/>
<path d="M21.7408 66.9812C21.4416 66.2304 21.037 65.4727 20.7378 64.722C21.2911 64.0601 21.0738 65.0834 21.3747 65.1776C21.5618 65.2324 23.2224 64.1785 24.8513 64.065C26.1075 63.9795 27.8903 65.5177 27.5553 63.5679C27.9878 64.6982 28.5259 65.8354 28.8613 66.991C26.8916 65.398 23.7435 65.2512 21.7001 66.9573L21.7408 66.9812Z" fill="#343132"/>
<path d="M72.9973 52.5563C72.1712 49.9864 73.3796 46.3941 75.9732 45.3344C77.953 44.5394 81.2677 45.1996 82.7497 46.7589C85.4354 49.6046 84.3604 54.5004 80.8067 56.1194C80.5725 56.2349 78.3796 56.7725 78.2495 56.7412C76.334 56.5552 73.6063 54.4554 72.9973 52.5563Z" fill="#A2A0A2"/>
<path d="M65.254 71.5861C65.34 71.2288 65.2469 69.9006 65.2703 69.8032C65.7016 68.1543 66.2311 67.5258 66.3484 67.0386C66.6892 67.0518 67.0327 66.4816 67.1681 66.2049C69.1091 64.7132 72.3201 64.6611 74.2806 66.2326C81.0371 71.7416 69.827 83.1676 65.254 71.5861Z" fill="#A2A0A2"/>
<path d="M77.9812 39.5633C78.9605 36.6372 79.8094 33.6807 80.5286 30.6921C80.971 30.2832 81.5665 30.6672 82.1921 30.7828C82.858 30.8741 85.2962 31.4608 85.7356 31.6355C85.9553 31.7233 86.1908 31.745 86.4183 31.7998C86.9668 32.3792 84.1355 42.1438 83.6627 43.6797C83.2538 45.0934 80.1488 43.4183 77.2657 42.9651L77.9732 39.5963L77.9812 39.5633Z" fill="#4C494B"/>
<path d="M69.0754 60.9939C70.2497 58.1151 71.4565 55.2439 72.9974 52.5564C73.6065 54.4555 76.3342 56.5552 78.2497 56.7413C77.0639 59.2394 76.146 61.7676 75.18 64.3529C72.6611 63.8156 71.0475 62.9461 68.4941 63.9811L69.1079 61.0018L69.0754 60.9939Z" fill="#4C494B"/>
<path d="M83.4817 25.4236C79.8368 24.1341 79.3603 16.2529 81.4114 16.1622C83.3571 16.0802 81.8654 18.849 82.4679 20.9184C83.3134 23.8362 86.5738 23.8648 87.9404 21.6161C90.1853 17.8611 86.3121 15.52 87.037 14.0796C88.7264 10.7751 94.3386 22.4687 87.0649 25.2543C86.4184 25.5112 84.149 25.6521 83.4817 25.4236Z" fill="#33140B"/>
<path d="M82.2001 30.7508L83.482 25.4239C84.1493 25.6523 86.4265 25.4793 87.0652 25.2545L85.7437 31.6035C85.2717 31.421 82.866 30.8421 82.2001 30.7508Z" fill="#C79B6C"/>
<path d="M75.9732 45.3346C76.45 43.3532 77.3495 41.4734 77.9811 39.5634L77.2734 42.9328C80.1565 43.386 83.2615 45.061 83.6704 43.6474C83.3553 44.6713 83.1623 45.7588 82.7171 46.7513C81.2677 45.1998 77.9205 44.5318 75.9407 45.3268L75.9732 45.3346Z" fill="#343132"/>
<path d="M69.0754 60.9941L68.4616 63.9735C71.0227 62.906 72.6285 63.8079 75.1475 64.3453C74.9339 64.9468 74.5915 65.6548 74.2805 66.2329C72.3277 64.6289 69.1492 64.6888 67.1679 66.2052C67.8617 64.8944 68.4245 62.5557 69.035 61.0187L69.0754 60.9941Z" fill="#343132"/>
</g>
<defs>
<clipPath id="clip0_88_337">
<rect width="96" height="174" fill="white"/>
</clipPath>
</defs>
</svg>
