<svg width="96" height="174" viewBox="0 0 96 174" fill="none" xmlns="http://www.w3.org/2000/svg">
<g clip-path="url(#clip0_24_89)">
<path d="M49.0198 61.5081C47.883 61.8088 46.7795 61.9424 45.5757 61.9424C43.001 61.9424 43.001 65.9182 45.5757 65.9516C47.0805 65.9516 48.6186 65.7846 50.0899 65.3836C52.5977 64.7154 51.5277 60.8399 49.0198 61.5081Z" fill="#C79B6C"/>
<path d="M51.3271 65.3502C53.9018 65.3502 53.9018 61.341 51.3271 61.341C48.7524 61.341 48.7524 65.3502 51.3271 65.3502Z" fill="#C79B6C"/>
<path d="M44.5057 65.4505C47.0805 65.4505 47.0805 61.4412 44.5057 61.4412C41.931 61.4412 41.931 65.4505 44.5057 65.4505Z" fill="#C79B6C"/>
<path d="M44.6061 65.1498C47.1808 65.1498 47.1808 61.1405 44.6061 61.1405C42.0313 61.1405 42.0313 65.1498 44.6061 65.1498Z" fill="#C79B6C"/>
<path d="M51.1265 58.4009C53.7012 58.4009 53.7012 54.3917 51.1265 54.3917C48.5518 54.3917 48.5518 58.4009 51.1265 58.4009Z" fill="#C79B6C"/>
<path d="M46.5455 59.0023C47.7492 59.1359 48.953 59.1359 50.1567 59.0023C51.2268 58.8687 52.163 58.167 52.163 56.9977C52.163 56.0288 51.2268 54.8594 50.1567 54.9931C48.953 55.1601 47.7492 55.1601 46.5455 54.9931C45.4754 54.8594 44.5392 55.9954 44.5392 56.9977C44.5392 58.2005 45.4754 58.8687 46.5455 59.0023Z" fill="#C79B6C"/>
<path d="M44.7398 59.0357C47.3145 59.0357 47.3145 55.0265 44.7398 55.0265C42.1651 55.0265 42.1651 59.0357 44.7398 59.0357Z" fill="#C79B6C"/>
<path d="M66.1066 111.356L65.8056 108.282L61.86 108.817L62.2278 110.721C62.6625 112.96 66.2403 112.425 66.1735 110.187V108.917C66.0732 107.48 64.4347 106.311 63.0972 107.18C61.325 108.382 59.5862 109.418 57.7137 110.421L60.6562 112.692L61.5925 110.02C62.6959 107.714 59.4525 105.743 58.1149 107.982L55.9415 111.156C54.3365 113.16 56.7774 115.666 58.7837 113.995C60.6562 112.392 62.1944 110.855 63.3647 108.717C64.1338 107.347 62.8297 105.075 61.0909 105.776L50.7921 109.986L52.7315 113.327L55.3062 110.688C56.7106 109.251 55.3062 106.812 53.3668 107.347C50.0899 108.215 47.0136 109.418 43.8704 110.688L45.8098 114.029L48.2508 111.289C49.5883 109.786 48.2842 107.514 46.3114 107.948C45.1745 108.215 42.232 109.318 41.0282 109.084L42.4995 111.022C42.6667 110.086 42.9007 109.184 43.2017 108.249C43.7701 106.211 41.2957 105.041 39.8579 106.311C38.8548 107.18 37.8182 108.048 36.7816 108.884L39.5235 109.619C39.7241 110.053 39.5904 106.812 39.5235 106.478C39.2895 105.71 38.4535 104.941 37.5841 105.008C35.3438 105.209 34.5413 106.946 33.5381 108.817L37.2163 110.354L37.6844 108.082C38.0857 106.211 35.7785 104.574 34.3407 106.144C33.8056 106.712 31.5988 109.752 30.8297 110.02L33.3041 111.423V109.118C33.371 106.545 29.3584 106.545 29.325 109.118C29.325 110.153 29.1244 111.423 29.4587 112.492C29.7597 113.461 30.8631 114.263 31.9331 113.895C34.1066 113.127 35.6782 110.588 37.2163 108.984L33.8725 107.046L33.4044 109.318C32.9697 111.456 35.9457 112.96 37.0826 110.855C37.6844 110.32 37.8851 109.719 37.651 109.017L35.7116 107.547C36.2466 109.385 35.4107 110.02 36.1463 111.623C36.6144 112.659 38.0188 112.793 38.8882 112.358C40.326 111.657 41.5632 110.22 42.8004 109.184L39.4566 107.247C39.1223 108.516 38.5873 109.752 38.6207 111.055C38.6207 111.857 39.2226 112.826 40.092 112.993C42.5329 113.394 45.1411 112.358 47.5152 111.857L45.5758 108.516L43.1348 111.256C41.931 112.592 43.0679 115.432 45.0742 114.597C48.1839 113.294 51.2936 112.124 54.5705 111.256L52.6311 107.915L50.0564 110.554C48.7524 111.857 50.0564 114.697 51.9958 113.895L62.2947 109.685L60.0209 106.745C58.9175 108.75 57.7137 109.819 56.0418 111.222L58.884 114.062C60.255 112.392 60.5559 111.957 61.6594 110.086L58.1818 108.048C57.4128 109.652 57.2456 109.986 56.8443 111.69C56.4431 113.394 58.2487 114.764 59.7868 113.962C61.6594 112.96 63.4316 111.924 65.1703 110.721L62.1609 108.984V110.253C63.5319 110.086 64.836 109.886 66.14 109.719L65.7722 107.815C65.3375 105.609 61.5925 106.077 61.8265 108.349L62.1275 111.423C62.395 113.962 66.4075 113.995 66.14 111.423L66.1066 111.356Z" fill="#C79B6C"/>
<path d="M68.3804 16.7051C54.7043 15.5023 40.9948 15.5023 27.3521 16.7051C34.7753 -5.44586 61.024 -5.64632 68.3804 16.7051Z" fill="#F3AC44"/>
<path d="M69.6176 21.3491C69.6176 21.3491 69.6176 21.5161 69.9185 21.75C75.536 22.6521 90.2153 26.4942 94.395 29.8687C85.2665 27.4965 75.7701 27.2293 66.3741 26.8283C66.3072 26.8283 66.1066 26.6613 64.7356 26.6279C63.2644 26.5611 61.7597 26.4608 60.255 26.4274C56.4096 26.3272 52.5308 26.4274 48.6855 26.4274C45.7095 26.4274 42.7335 26.3606 39.7576 26.4274C38.4869 26.4274 37.1829 26.394 35.9122 26.4274C34.3072 26.4608 32.6688 26.5611 31.0303 26.6279C29.86 26.6613 29.3584 26.8283 29.1912 26.8283C19.7952 27.2627 10.1985 27.4297 1.17032 30.0691C5.35005 26.1601 20.4639 23.22 26.1484 21.3491C35.6782 20.9816 45.2748 20.2465 54.9049 20.5472C59.1515 20.6809 63.4984 21.0484 67.7116 21.5495C69.0491 21.7166 69.5507 21.3157 69.651 21.3491H69.6176Z" fill="#F3AC44"/>
<path d="M94.395 29.8687C94.8631 30.2696 96.0669 30.7707 96.0334 31.606C95.7994 34.8134 76.0042 37.2857 72.861 37.5864C72.4932 36.3502 74.3992 30.5369 74.2988 30.1694C73.9979 29.2673 72.1588 29.3007 71.8579 30.1694C71.6573 30.7373 73.2288 31.2051 71.256 37.9873L68.2132 38.3882C68.7482 34.379 68.2132 30.4366 66.3741 26.8283C75.7701 27.2293 85.2999 27.4965 94.395 29.8687Z" fill="#B16816"/>
<path d="M29.1912 26.8283C27.72 31.0714 26.9509 33.8111 27.5528 38.3882L24.5099 37.9873C22.4702 30.9044 24.1421 31.0046 24.1087 30.5703C24.0418 29.7684 22.604 29.4009 21.9687 29.6682C20.7649 30.1359 23.3396 35.7154 22.8715 37.5864C19.9958 37.1521 -1.87251 34.947 0.133757 30.7707C0.334384 30.3698 0.969703 30.2362 1.13689 30.0691C10.1651 27.4297 19.7952 27.2293 29.1578 26.8283H29.1912Z" fill="#B16816"/>
<path d="M68.3804 16.7051C68.8819 18.2419 69.3835 19.7454 69.5841 21.3825C69.4838 21.3825 69.0157 21.75 67.6447 21.5829C63.4316 21.0818 59.0846 20.6809 54.838 20.5806C45.2414 20.3134 35.6113 21.015 26.0815 21.3825C26.4159 19.8122 26.7837 18.2419 27.2853 16.7051C40.9613 15.5023 54.6709 15.5023 68.3135 16.7051H68.3804Z" fill="#4D2515"/>
<path d="M66.3406 108.449C66.3406 111.891 66.7753 115.432 66.5413 118.907L62.4619 120.21C59.7534 120.109 54.9718 121.914 52.8986 122.248C52.1296 122.381 51.1599 122.315 50.3574 122.448L49.6552 119.809L48.2173 110.688C48.2173 110.688 48.8861 111.089 48.9195 111.089C49.7555 111.222 65.1034 111.59 65.7722 111.089C66.0397 110.922 65.7722 108.917 65.8725 108.449H66.2738H66.3406Z" fill="#C79B6C"/>
<path d="M47.6489 110.253C46.9133 113.327 46.512 116.501 45.8098 119.575C45.7095 120.043 45.4086 122.315 45.3082 122.415L42.767 122.214C39.6573 120.945 36.2132 120.778 33.0031 119.976C32.4681 119.842 29.2247 119.04 29.1578 118.873C29.1578 116.401 29.1912 113.929 29.1578 111.456C29.6928 111.59 29.5256 111.089 29.6593 111.055C31.0972 110.721 41.3291 111.289 44.7064 111.055C45.4086 110.988 47.3145 110.988 47.2476 110.253C47.3814 110.253 47.5151 110.253 47.6489 110.253Z" fill="#C79B6C"/>
<path d="M37.116 161.204C37.116 161.204 37.3835 161.204 37.5172 161.204C39.9248 161.705 41.4629 163.509 43.2017 165.046C43.3354 165.681 44.1714 166.65 44.6395 168.487C44.8736 169.423 44.907 170.392 45.0407 171.327C44.071 171.194 26.5162 171.427 25.5465 171.528C25.6134 170.726 25.4462 169.657 25.5465 168.888C26.0815 165.414 29.8265 161.839 33.2706 161.171C34.9425 160.87 35.5778 161.037 37.116 161.171V161.204Z" fill="#C79B6C"/>
<path d="M62.0941 161.003C62.3616 161.003 62.4619 161.003 62.4953 161.003C62.6625 161.037 65.371 162.273 65.6385 162.44C67.511 163.609 69.7848 166.783 70.2194 168.922C70.2194 169.055 70.1191 170.826 70.2194 171.361C69.2497 171.227 51.8621 171.427 50.9258 171.561C50.6918 170.525 50.9258 169.523 51.1264 168.521C51.5946 166.516 52.4305 165.748 52.5643 165.079C55.373 162.173 57.8809 160.536 62.1275 161.003H62.0941Z" fill="#C79B6C"/>
<path d="M59.4524 132.404C59.8203 132.471 61.86 133.44 62.094 133.607C62.094 133.607 62.395 133.908 62.4953 134.008C65.07 136.581 64.9028 141.124 62.2947 143.563C59.7199 145.935 54.9383 145.935 52.5308 143.363C50.1567 140.824 50.4577 136.347 52.9321 134.041C53.6008 133.44 54.9049 132.605 55.7743 132.404C56.9446 132.137 58.2487 132.137 59.419 132.404H59.4524Z" fill="#A2A0A2"/>
<path d="M39.9582 132.404C40.627 132.538 42.3323 133.373 42.8004 133.841C47.1473 137.95 43.3354 142.862 43.2017 143.396C40.3595 145.802 36.3469 146.236 33.4378 143.597C30.93 141.291 30.6959 136.781 33.0366 134.275C33.4378 133.841 35.6447 132.605 36.28 132.438C37.4504 132.17 38.7544 132.17 39.9248 132.438L39.9582 132.404Z" fill="#A2A0A2"/>
<path d="M77.743 95.8537C75.7033 97.1233 72.6939 96.7558 70.6207 95.6532C67.0094 91.5438 69.3166 89.6394 69.4169 87.9355C70.7545 86.2984 73.5967 84.7949 75.7033 85.0956C75.9039 85.0956 78.4117 86.5991 78.9467 87.2339C80.9864 89.6394 80.418 94.1832 77.743 95.8537Z" fill="#A2A0A2"/>
<path d="M26.1149 87.9355C27.5193 90.2408 27.1849 94.0161 24.9112 95.6532C23.1724 96.8894 19.7952 97.023 17.9895 95.8537C14.7126 93.7154 14.6123 88.7039 17.6886 86.2984C17.8892 86.1313 19.8955 85.0956 20.0293 85.0956C21.9352 84.8283 25.0784 86.2316 26.1149 87.9355Z" fill="#A2A0A2"/>
<path d="M29.1912 67.6221C29.1912 67.9896 29.5925 69.2592 29.5925 69.3594C29.559 71.0634 29.1912 71.7984 29.1912 72.2995C28.8568 72.3664 28.6562 73.0011 28.5893 73.3018C27.0512 75.2062 23.9415 76.0081 21.6677 74.9389C13.8098 71.1636 22.0355 57.432 29.1912 67.6221Z" fill="#A2A0A2"/>
<path d="M74.0648 74.9389C71.6907 76.1083 68.6813 75.1394 67.1432 73.1014C66.8756 72.7339 66.9425 72.3998 66.5413 72.2995C66.5413 71.7984 66.14 71.0634 66.14 70.9965C66.1066 68.9585 66.5413 67.9562 66.5413 67.6555C73.2623 57.3986 82.023 71.1302 74.0648 74.9723V74.9389Z" fill="#A2A0A2"/>
<path d="M77.9436 99.8963C78.1442 103.638 78.2779 107.414 77.9436 111.156C77.8098 111.356 77.0073 111.222 76.7398 111.256C76.1379 111.323 73.697 111.323 73.0951 111.256C72.6604 111.189 72.1923 111.423 71.8913 110.955C71.5569 106.779 71.6907 102.435 71.0888 98.2592C72.2926 98.326 73.4295 98.4597 74.6332 98.4597C77.5423 98.4597 77.2414 97.1233 77.977 99.8963H77.9436Z" fill="#4C494B"/>
<path d="M24.3093 101.734C24.0418 104.808 23.9081 107.881 23.9081 110.955C23.5737 111.456 22.9049 111.222 22.2696 111.256C21.6008 111.323 19.093 111.323 18.6249 111.256C18.3908 111.222 18.1567 111.256 17.9227 111.256C17.2539 110.821 17.7221 100.665 17.8224 99.0611C17.8892 97.591 21.2999 98.4931 24.209 98.2592L24.3093 101.7V101.734Z" fill="#4C494B"/>
<path d="M42.1651 102.536C42.0982 102.97 42.0982 108.149 42.1651 108.416L29.3584 108.616C29.3584 106.512 29.3584 104.407 29.3584 102.335L42.1651 102.536Z" fill="#4D2515"/>
<path d="M66.5412 102.335C66.5412 104.373 66.3406 106.411 66.3406 108.416H65.9394L53.5339 108.215C53.6008 107.915 53.6008 102.903 53.5339 102.536L66.5412 102.335Z" fill="#4D2515"/>
<path d="M74.4661 77.3779C74.8004 79.9505 75.0345 82.5565 75.6698 85.0956C73.5632 84.7949 70.721 86.2984 69.3835 87.9355C69.3835 87.3675 68.0794 81.2869 67.5444 76.7765C67.7116 74.8053 69.0491 76.7765 70.2863 76.977C71.8914 77.2777 73.7973 76.6763 73.9311 76.7765C74.232 76.9435 73.7304 77.879 74.4326 77.3779H74.4661Z" fill="#4C494B"/>
<path d="M27.954 78.8145C27.4859 81.8882 26.9843 84.962 26.115 87.9355C25.0784 86.2316 21.9352 84.8283 20.0293 85.0956C20.5977 82.3894 20.8987 79.7166 21.233 76.977C23.8077 76.9101 25.5799 77.3779 27.8203 75.7742L27.9206 78.8145H27.954Z" fill="#4C494B"/>
<path d="M22.2696 116.768C26.115 117.169 28.4222 124.72 26.4493 125.288C24.5768 125.823 25.3793 122.782 24.3093 120.911C22.8046 118.272 19.628 119.007 18.8255 121.513C17.5214 125.689 21.8349 127.059 21.4671 128.629C20.5977 132.237 12.4054 122.181 18.8255 117.771C19.3939 117.37 21.5674 116.702 22.2696 116.768Z" fill="#33140B"/>
<path d="M73.2623 117.169C74.1316 117.103 76.0042 117.37 76.7064 117.771C77.1076 118.005 78.7461 120.176 78.9467 120.711C80.6855 125.656 75.1013 130.834 74.2654 128.829C73.6635 127.359 76.8735 125.756 77.1076 123.551C77.4085 120.811 74.9007 118.606 72.5266 119.608C70.0188 120.644 71.3563 125.756 69.2831 125.288C67.5109 124.921 68.7147 117.57 73.2288 117.169H73.2623Z" fill="#33140B"/>
<path d="M43.2017 143.363C42.8338 144.733 42.8673 163.409 43.2017 165.079C41.4629 163.509 39.9248 161.705 37.5172 161.237C40.3595 161.538 42.6667 162.808 42.8004 162.54V148.141C40.6604 148.374 38.4535 148.174 36.3135 148.241C35.4441 148.241 34.5413 148.274 33.6719 148.141C33.4378 150.88 33.9728 159.266 33.6719 160.536C33.6384 160.703 33.4044 160.636 33.2706 160.636L33.4713 143.597C36.3803 146.236 40.3595 145.802 43.2351 143.396L43.2017 143.363Z" fill="#343132"/>
<path d="M62.4953 120.21V134.008C62.4953 134.008 62.1275 133.607 62.094 133.607L62.2947 124.386C62.1609 124.152 59.9875 124.82 59.6531 124.887C58.2821 125.121 56.9446 125.422 55.5737 125.689C54.6374 125.889 53.6677 126.09 52.7314 126.29C52.7649 124.954 53.0993 123.584 52.9321 122.214C55.0052 121.914 59.7534 120.109 62.4953 120.176V120.21Z" fill="#343132"/>
<path d="M42.8004 122.248V126.524C41.8642 126.223 40.8945 126.157 39.9582 125.923C38.721 125.622 37.5172 125.388 36.3135 125.121C35.2435 124.887 34.1735 124.386 33.07 124.319V120.043C36.28 120.844 39.7241 121.012 42.8339 122.281L42.8004 122.248Z" fill="#343132"/>
<path d="M62.2947 143.563L62.4953 161.003C62.4953 161.003 62.3615 161.003 62.094 161.003V148.107C61.2247 148.241 60.3218 148.241 59.4525 148.207C58.1149 148.174 56.744 148.207 55.373 148.207C54.4033 148.207 53.4671 148.274 52.5308 148.007V143.329C54.9383 145.902 59.72 145.902 62.2947 143.53V143.563Z" fill="#343132"/>
<path d="M36.28 148.207C36.4807 149.945 36.0125 159.934 36.28 160.502C36.5475 161.104 37.6175 160.502 37.0825 161.204C35.511 161.07 34.9091 160.903 33.2372 161.204V160.603C33.2372 160.603 33.605 160.636 33.6384 160.502C33.9394 159.266 33.4044 150.847 33.6384 148.107C34.5078 148.241 35.4106 148.241 36.28 148.207Z" fill="#4C494B"/>
<path d="M36.28 125.088V132.404C35.6447 132.538 33.4378 133.774 33.0366 134.242V124.286C34.14 124.386 35.21 124.854 36.28 125.088Z" fill="#4C494B"/>
<path d="M76.7064 111.289V117.771C76.0042 117.37 74.1317 117.069 73.2623 117.169L73.0616 111.289C73.6635 111.356 76.1045 111.356 76.7064 111.289Z" fill="#C79B6C"/>
<path d="M22.2696 111.289V116.768C21.5674 116.702 19.3939 117.403 18.8255 117.771L18.6249 111.289C19.1264 111.356 21.6008 111.356 22.2696 111.289Z" fill="#C79B6C"/>
<path d="M24.9112 95.6532C24.9112 97.6912 24.4765 99.7293 24.3093 101.734L24.209 98.2926C21.2999 98.5265 17.8892 97.6244 17.8224 99.0945C17.8892 98.0253 17.8224 96.9228 18.023 95.8537C19.7952 97.023 23.2058 96.8894 24.9446 95.6532H24.9112Z" fill="#343132"/>
<path d="M77.7429 95.8537C77.7429 97.2235 77.8767 98.5599 77.9436 99.9297C77.1745 97.1901 77.5089 98.4931 74.5998 98.4931C73.396 98.4931 72.2257 98.3594 71.0554 98.2926C70.9216 97.424 70.8547 96.5219 70.6541 95.6532C72.7273 96.7558 75.7367 97.1233 77.7764 95.8537H77.7429Z" fill="#343132"/>
<path d="M27.954 78.8145L27.8537 75.7742C25.6134 77.4113 23.8412 76.9101 21.2664 76.977C21.3333 76.3422 21.5005 75.5737 21.6677 74.9389C23.9415 76.0415 27.0178 75.2396 28.5893 73.3018C28.2215 74.7385 28.2215 77.144 27.9875 78.7811L27.954 78.8145Z" fill="#343132"/>
<path d="M74.0648 74.9389C74.1651 75.7408 74.3657 76.576 74.466 77.3779C73.7638 77.879 74.232 76.9435 73.9645 76.7765C73.7973 76.6763 71.9247 77.2777 70.3197 76.977C69.0825 76.7431 67.745 74.8053 67.5778 76.7765C67.4441 75.5737 67.21 74.3376 67.1766 73.1348C68.6813 75.1728 71.6907 76.1083 74.0982 74.9723L74.0648 74.9389Z" fill="#343132"/>
<path d="M52.7315 64.1809C52.163 65.6175 50.3908 67.4217 48.8861 67.6221C48.8192 67.6221 48.7189 67.4551 48.0836 67.4217C45.8433 67.3548 43.4692 66.1521 42.8004 63.78C44.8736 63.8468 46.9133 64.2143 48.9864 64.1809C50.0899 64.1809 51.9958 63.379 52.7315 64.1809Z" fill="#4C494B"/>
<path d="M42.8004 63.78C43.4692 66.1521 45.8432 67.3548 48.0836 67.4217V100.097C45.6092 100.097 42.6667 99.4286 42.1985 102.536L29.3918 102.335C29.3584 92.3456 28.9906 82.2892 29.1912 72.2995C29.1912 71.7984 29.559 71.0634 29.5925 69.3594C29.5925 69.2592 29.1912 67.9896 29.1912 67.6221C29.1912 66.7869 29.0909 64.8157 29.1912 64.4816C29.8934 61.8756 40.2591 63.8802 42.5998 62.9447C42.6332 63.212 42.7335 63.4793 42.8004 63.7465V63.78Z" fill="#C79B6C"/>
<path d="M48.8861 67.6221V100.097C48.6186 100.097 48.3511 100.097 48.0836 100.097V67.4217C48.7189 67.4217 48.8192 67.6221 48.8861 67.6221Z" fill="#B58758"/>
<path d="M44.1045 72.0991C46.6792 71.5979 46.6792 75.841 43.9038 75.1394C42.4995 74.7719 42.8338 72.3329 44.1045 72.0991Z" fill="#1A0B0C"/>
<path d="M43.9039 90.3744C46.512 89.6394 46.7461 93.9159 44.1045 93.4147C42.5998 93.1475 42.7001 90.7085 43.9039 90.3744Z" fill="#1A0B0C"/>
<path d="M43.9039 81.2535C46.2111 80.5853 46.7126 83.9597 44.907 84.2938C42.767 84.6947 42.4326 81.6544 43.9039 81.2535Z" fill="#1A0B0C"/>
<path d="M66.5413 67.6221C66.5413 67.9228 66.0731 68.9585 66.14 70.9631C66.14 71.03 66.5413 71.7984 66.5413 72.2661C66.7419 82.2558 66.5747 92.3122 66.5413 102.302L53.534 102.502C53.0324 99.7627 50.9592 100.164 48.8527 100.063V67.5887C50.3574 67.3882 52.1296 65.5841 52.698 64.1475C52.8986 63.6797 53.2999 63.1786 53.2999 63.1452C63.7659 63.78 66.6081 60.7396 66.5078 67.6221H66.5413Z" fill="#C79B6C"/>
<path d="M51.0261 72.0991C53.0658 71.5311 53.8349 74.6382 52.2299 75.1394C49.6217 75.9746 49.5883 72.4666 51.0261 72.0991Z" fill="#1A0B0C"/>
<path d="M51.0261 90.3744C53.6677 89.6728 53.8349 93.8825 51.2267 93.4147C49.8558 93.1809 49.6551 90.7419 51.0261 90.3744Z" fill="#1A0B0C"/>
<path d="M50.8255 81.2535C53.3333 80.4182 53.8349 83.9931 51.8286 84.2938C50.023 84.5945 49.4211 81.7212 50.8255 81.2535Z" fill="#1A0B0C"/>
<path d="M35.8788 26.4274C30.395 32.6417 31.699 42.4309 38.0188 47.5426C49.3877 56.697 66.9091 46.4067 62.6959 31.3053C62.2278 29.568 61.1243 27.9643 60.255 26.4274C61.7262 26.4608 63.2309 26.5611 64.7356 26.6279C65.3041 28.8998 66.5413 31.038 66.7753 33.4435C68.9488 56.1624 37.4838 62.0092 30.1943 42.5645C28.0878 36.985 28.8903 32.0069 30.9969 26.6279C32.6019 26.5611 34.2738 26.4608 35.8788 26.4274Z" fill="#A2A0A2"/>
<path d="M30.9969 26.6279C28.8903 32.0069 28.0878 36.9516 30.1944 42.5645C37.4838 62.0092 68.9488 56.129 66.7754 33.4435C66.5413 31.038 65.3041 28.9332 64.7357 26.6279C66.0732 26.6947 66.2738 26.8283 66.3741 26.8283C68.1797 30.4366 68.7482 34.379 68.2132 38.3882C67.2435 45.5714 62.395 51.4182 55.9081 54.4251C54.6709 54.9931 52.8318 54.8594 53.1662 56.0622C49.3877 56.7638 46.7127 56.9309 42.8004 56.2627C43.1683 54.9931 39.9917 54.7926 36.8151 52.8214C31.9666 49.7811 28.3219 44.068 27.5862 38.4217C26.9843 33.8445 27.72 31.1048 29.2247 26.8617C29.3919 26.8617 29.8934 26.6947 31.0638 26.6613L30.9969 26.6279Z" fill="#4C494B"/>
<path d="M60.255 26.4274C61.1244 27.9643 62.1944 29.568 62.6959 31.3053C62.6959 33.2097 59.1181 29.8353 54.4702 28.4654C50.5915 27.2961 45.4086 27.2961 47.883 26.6279C48.3177 26.6279 48.7189 26.7281 48.6855 26.4274C52.5309 26.4274 56.4096 26.3272 60.255 26.4274Z" fill="#C3E6E9"/>
<path d="M25.5131 171.561C26.4828 171.461 44.0376 171.227 45.0073 171.361C46.3114 171.528 45.8433 173.699 45.7095 173.8C44.8401 174.401 27.1515 173.332 24.5768 173.8C24.4431 173.699 23.6071 171.795 25.4796 171.561H25.5131Z" fill="#4D2515"/>
<path d="M50.9258 171.561C51.8955 171.427 69.2832 171.227 70.2194 171.361C71.8579 171.594 71.256 173.699 71.1222 173.8C70.2529 174.401 52.7649 173.332 50.1902 173.8C50.0564 173.699 49.3542 171.795 50.8924 171.561H50.9258Z" fill="#4D2515"/>
<path d="M48.2842 110.654L49.7221 119.775L45.8767 119.575C46.5455 116.468 46.9467 113.327 47.7158 110.253C47.7827 110.253 47.8495 110.253 47.9164 110.253C47.9164 110.487 48.1505 110.554 48.3177 110.654H48.2842Z" fill="#1A0B0C"/>
<path d="M37.5173 161.204C37.5173 161.204 37.2497 161.204 37.116 161.204C37.651 160.502 36.581 161.07 36.3135 160.502C36.046 159.934 36.5141 149.978 36.3135 148.207C38.4869 148.141 40.6604 148.341 42.8004 148.107V162.507C42.6667 162.741 40.3595 161.505 37.5173 161.204Z" fill="#4C494B"/>
<path d="M55.373 148.207L55.674 161.605L59.419 160.703V148.207C60.2884 148.207 61.1912 148.241 62.0606 148.107V161.003C57.814 160.536 55.3062 162.139 52.4974 165.079C52.698 164.01 52.4974 151.248 52.4974 148.04C53.4336 148.308 54.3699 148.241 55.3396 148.241L55.373 148.207Z" fill="#4C494B"/>
<path d="M59.6531 124.887L59.4525 132.404C58.2821 132.137 56.9781 132.137 55.8077 132.404L55.6071 125.722C56.9781 125.422 58.2821 125.154 59.6865 124.92L59.6531 124.887Z" fill="#4C494B"/>
<path d="M62.094 133.607C61.86 133.407 59.8203 132.471 59.4525 132.404L59.6531 124.887C59.9875 124.82 62.1609 124.119 62.2947 124.386L62.094 133.607Z" fill="#4C494B"/>
<path d="M55.5737 125.689L55.7743 132.371C54.9049 132.571 53.6009 133.373 52.9321 134.008C52.6312 131.502 52.6646 128.829 52.7315 126.29C53.6677 126.09 54.6374 125.889 55.5737 125.689Z" fill="#4C494B"/>
<path d="M39.9582 125.889V132.371C38.7879 132.104 37.4838 132.104 36.3135 132.371V125.054C37.5507 125.321 38.7544 125.555 39.9582 125.856V125.889Z" fill="#4C494B"/>
<path d="M42.8004 126.491V133.808C42.3323 133.373 40.6269 132.538 39.9582 132.371V125.889C40.8945 126.123 41.8976 126.19 42.8004 126.491Z" fill="#4C494B"/>
<path d="M52.7314 57.6993V61.6417C52.3302 62.5772 44.3051 62.5438 43.0679 61.7419L42.767 57.6659C46.0439 58.2673 49.4211 58.2339 52.7314 57.6659V57.6993Z" fill="#4C494B"/>
<path d="M59.4525 148.207V160.703L55.7074 161.605L55.4065 148.207C56.744 148.207 58.115 148.174 59.4859 148.207H59.4525Z" fill="#4C494B"/>
<path d="M39.7576 26.4274C31.3313 33.2097 36.5476 29.4009 40.6604 28.0645C42.0314 27.6302 46.512 26.6613 47.883 26.6279C45.442 27.2961 50.6249 27.2961 54.4702 28.4654C59.1181 29.8353 62.6959 33.2097 62.6959 31.3053C66.8757 46.4067 49.3542 56.697 38.0188 47.5426C31.6991 42.4643 30.4284 32.6417 35.8788 26.4274C37.1494 26.394 38.4535 26.4274 39.7242 26.4274H39.7576Z" fill="#C3E6E9"/>
<path d="M48.6855 26.4274C48.6855 26.7281 48.3177 26.6279 47.883 26.6279C46.512 26.6279 42.0648 27.5968 40.6604 28.0645C36.5141 29.4009 31.3313 33.2097 39.7576 26.4274C42.7336 26.3606 45.7095 26.4274 48.6855 26.4274Z" fill="#E5F3F6"/>
<path d="M55.2727 33.7442C60.1881 32.7419 60.3553 41.0276 56.4765 41.462C52.2299 41.9297 51.7952 34.4793 55.2727 33.7442Z" fill="#4C494B"/>
<path d="M38.8213 33.7442C43.7033 32.7419 43.9708 41.0276 40.0251 41.462C35.7785 41.9297 35.4441 34.4459 38.8213 33.7442Z" fill="#4C494B"/>
<path d="M41.2623 44.7028C41.697 44.5357 45.1745 47.6094 50.3908 46.5403C52.3971 46.1394 55.373 43.3998 54.7712 45.6382C54.604 46.2062 51.2602 47.6429 50.5914 47.7765C44.9405 48.9124 39.3563 45.5046 41.2623 44.7362V44.7028Z" fill="#1C1A1A"/>
<path d="M48.0836 100.13C48.3511 100.13 48.6186 100.13 48.8861 100.13C50.9927 100.23 53.0658 99.8295 53.5674 102.569C53.6343 102.937 53.6343 107.948 53.5674 108.249C53.0324 110.821 49.722 110.253 47.883 110.287C47.8161 110.287 47.7492 110.287 47.6823 110.287C47.5486 110.287 47.4148 110.287 47.2811 110.287C45.6092 110.22 42.7335 110.755 42.1985 108.449C42.1317 108.149 42.1317 103.003 42.1985 102.569C42.7001 99.462 45.6426 100.097 48.0836 100.13Z" fill="#FAC90B"/>
<path d="M44.3051 101.333C44.8736 101.166 50.5246 101.333 51.8286 101.533C52.3302 101.868 52.4974 108.182 51.9289 108.75L43.9039 108.85C43.2351 108.416 42.8004 101.767 44.3051 101.333Z" fill="#4D2515"/>
<path d="M22.0355 37.4862C28.489 37.4862 28.489 27.4631 22.0355 27.4631C15.582 27.4631 15.582 37.4862 22.0355 37.4862Z" fill="#B16816"/>
<path d="M73.6636 37.4862C80.1171 37.4862 80.1171 27.4631 73.6636 27.4631C67.2101 27.4631 67.2101 37.4862 73.6636 37.4862Z" fill="#B16816"/>
<path d="M34.675 114.563L35.9791 114.329C37.5507 114.062 39.256 113.561 40.5601 112.592C41.1954 112.124 42.1317 111.222 41.3292 110.454L39.8913 109.051L32.2675 113.026C32.7691 113.026 33.2372 113.127 33.7388 113.227L32.8694 113.06C33.6385 113.227 34.4075 113.461 35.1097 113.762C35.4441 113.929 35.7785 114.096 36.1129 114.229C36.7147 114.497 37.3166 114.597 37.9854 114.73C38.5538 114.797 39.0888 114.764 39.6573 114.73C40.2926 114.697 40.9279 114.563 41.5632 114.396C42.1985 114.229 42.8004 114.029 43.4023 113.728C43.9373 113.528 44.4054 113.26 44.8736 112.926L45.5423 112.358C45.8767 112.058 46.0104 111.69 45.9436 111.256C45.6761 110.554 44.8401 110.454 44.1714 110.32H44.0711C44.372 110.354 44.6395 110.42 44.9404 110.487C43.9707 110.287 43.1348 109.719 42.1985 109.385C40.9948 108.984 39.7241 108.717 38.4535 108.65C37.4504 108.583 36.5141 108.65 35.5444 108.884C34.5078 109.118 33.4378 109.418 32.5016 109.919C31.9331 110.22 31.3647 110.588 30.93 111.055C30.6625 111.289 30.5287 111.556 30.5287 111.891C30.4619 112.191 30.5287 112.425 30.8297 112.626L32.2675 114.029L37.6176 110.153L36.3135 110.387C35.0763 110.588 33.7388 110.988 32.6353 111.59C32.1672 111.79 31.7659 112.091 31.3981 112.425C31.0972 112.659 30.8631 112.926 30.6959 113.294V113.828C30.8297 114.229 31.1306 114.497 31.5653 114.597C32.5684 114.897 33.7053 114.831 34.675 114.664V114.563Z" fill="#C79B6C"/>
</g>
<defs>
<clipPath id="clip0_24_89">
<rect width="96" height="174" fill="white"/>
</clipPath>
</defs>
</svg>
